<svg width="19" height="18" viewBox="0 0 19 18" fill="none" xmlns="http://www.w3.org/2000/svg">
<path fill-rule="evenodd" clip-rule="evenodd" d="M0.304688 3.71605C0.304688 2.17503 1.55394 0.925781 3.09496 0.925781H16.1162C17.6573 0.925781 18.9065 2.17503 18.9065 3.71605V14.8771C18.9065 16.4182 17.6573 17.6674 16.1162 17.6674H3.09496C1.55394 17.6674 0.304688 16.4182 0.304688 14.8771V3.71605ZM3.0947 2.78557H16.116C16.6297 2.78557 17.0461 3.20199 17.0461 3.71566V12.7248L14.6604 9.40912C13.5708 8.31942 11.8041 8.31942 10.7144 9.40912L5.24669 15.8068H3.0947C2.58103 15.8068 2.16461 15.3904 2.16461 14.8767V3.71566C2.16461 3.20199 2.58103 2.78557 3.0947 2.78557ZM7.87745 15.8069H16.116C16.4895 15.8069 16.8116 15.5868 16.9596 15.269L13.3451 10.7245C12.9819 10.3612 12.3929 10.3612 12.0297 10.7245L7.87745 15.8069ZM4.02503 7.43626C4.02503 5.89524 5.27428 4.64598 6.8153 4.64598C8.35632 4.64598 9.60557 5.89524 9.60557 7.43626C9.60557 8.97732 8.35632 10.2265 6.8153 10.2265C5.27428 10.2265 4.02503 8.97732 4.02503 7.43626ZM6.81512 6.50639C6.30145 6.50639 5.88503 6.92281 5.88503 7.43648C5.88503 7.95017 6.30145 8.36657 6.81512 8.36657C7.32879 8.36657 7.74521 7.95017 7.74521 7.43648C7.74521 6.92281 7.32879 6.50639 6.81512 6.50639Z" fill="#898A8D"/>
</svg>
