<svg width="29" height="31" viewBox="0 0 29 31" fill="none" xmlns="http://www.w3.org/2000/svg">
<path d="M4.14746 12.7979C4.39825 12.7979 4.60156 12.5946 4.60156 12.3438V1.70319C4.60156 1.26483 4.95819 0.908205 5.39655 0.908205H20.2672C20.518 0.908205 20.7213 0.704888 20.7213 0.454102C20.7213 0.203317 20.518 0 20.2672 0H5.39655C4.4574 0 3.69336 0.764042 3.69336 1.70319V12.3438C3.69336 12.5946 3.89668 12.7979 4.14746 12.7979Z" fill="black"/>
<path d="M28.661 21.8389C28.477 21.689 28.2217 21.6622 28.0107 21.7709L26.3014 22.6504C26.138 22.4049 25.8927 22.021 25.5983 21.5122C25.4727 21.2952 25.1948 21.221 24.9778 21.3467C24.7608 21.4723 24.6866 21.7501 24.8123 21.9672C25.3823 22.952 25.7721 23.484 25.7884 23.5062C25.9206 23.6858 26.1636 23.7428 26.3619 23.6408L27.7926 22.9045L26.6297 27.0721L22.5623 25.5959L23.993 24.8597C24.1117 24.7987 24.1974 24.6883 24.2275 24.5583C24.2577 24.4284 24.2289 24.2915 24.1492 24.1845C24.138 24.1695 23.0169 22.6497 21.8385 19.8312C20.7831 17.3067 19.4703 13.2079 19.1161 7.86996H20.431C20.5956 11.2917 22.035 16.7689 23.8872 20.2378C23.9985 20.4626 24.2709 20.5546 24.4956 20.4434C24.7204 20.3322 24.8125 20.0598 24.7012 19.835C24.365 19.1559 24.0072 18.3707 23.6538 17.4896C24.5137 17.4044 25.1877 16.6769 25.1877 15.7949V1.70319C25.1877 0.764042 24.4236 0 23.4845 0H22.1999C21.9491 0 21.7458 0.203317 21.7458 0.454102C21.7458 0.704888 21.9491 0.908205 22.1999 0.908205H23.4845C23.9228 0.908205 24.2795 1.26483 24.2795 1.70319V15.7949C24.2795 16.2333 23.9228 16.5899 23.4845 16.5899H23.3078C23.1885 16.2661 23.0707 15.9311 22.9554 15.5858C23.2029 15.4512 23.3712 15.1889 23.3712 14.8879V2.61018C23.3712 2.17249 23.0151 1.81641 22.5774 1.81641H6.30343C5.86574 1.81641 5.50966 2.17249 5.50966 2.61018V14.8879C5.50966 15.1882 5.67731 15.45 5.92386 15.5848C5.80791 15.933 5.69021 16.2685 5.57202 16.5899H5.39644C4.95808 16.5899 4.60145 16.2333 4.60145 15.7949V14.2938C4.60145 14.043 4.39814 13.8397 4.14735 13.8397C3.89657 13.8397 3.69325 14.043 3.69325 14.2938V15.7949C3.69325 16.6767 4.36689 17.4041 5.2266 17.4896C5.05186 17.9262 4.879 18.3319 4.71274 18.7034C3.821 20.695 2.96735 22.066 2.57931 22.6503L0.870306 21.7709C0.6593 21.6624 0.403973 21.689 0.21991 21.839C0.0358472 21.989 -0.041774 22.2336 0.021982 22.4622L1.46675 27.6397C1.51126 27.7993 1.62127 27.9343 1.76858 28.0101C1.85377 28.0539 1.9478 28.0761 2.04207 28.0761C2.11085 28.0761 2.17976 28.0643 2.24545 28.0405L7.2984 26.2066H7.29846C7.52164 26.1256 7.67549 25.9202 7.69056 25.6832C7.70564 25.4464 7.57897 25.2232 7.36791 25.1145L5.76129 24.2878C6.18682 23.6355 7.00565 22.2667 7.86554 20.2168C8.18747 19.4492 8.53259 18.5396 8.86844 17.4981H12.6543V25.9116H10.675C10.4571 25.9116 10.2598 26.0407 10.1726 26.2405C10.0854 26.4403 10.1248 26.6727 10.273 26.8325L13.9274 30.776C14.0594 30.9184 14.2464 31 14.4405 31C14.6346 31 14.8217 30.9183 14.9535 30.776L18.608 26.8326C18.7562 26.6726 18.7956 26.4403 18.7084 26.2405C18.6212 26.0407 18.424 25.9116 18.206 25.9116H16.2266V17.4981H20.0124C20.3482 18.5396 20.6933 19.4492 21.0153 20.2168C21.8751 22.2667 22.694 23.6355 23.1195 24.2878L21.5129 25.1145C21.3018 25.2231 21.1752 25.4463 21.1902 25.6832C21.2053 25.9202 21.3592 26.1255 21.5824 26.2066L26.6354 28.0405C26.701 28.0643 26.7699 28.0761 26.8387 28.0761C26.933 28.0761 27.027 28.0539 27.1122 28.0101C27.2595 27.9343 27.3695 27.7993 27.414 27.6397L28.8588 22.4622C28.9227 22.2336 28.8451 21.9889 28.661 21.8389ZM18.8167 12.7603H16.2266V10.0357H18.403C18.5152 10.9902 18.6558 11.8988 18.8167 12.7603ZM16.2266 13.6685H18.997C19.0769 14.0472 19.1606 14.4152 19.247 14.7735H16.2266V13.6685ZM18.3071 9.12746H16.2266V7.87002H18.2065C18.2342 8.29694 18.2679 8.71604 18.3071 9.12746ZM6.41786 6.96181V4.2372H22.4631V6.96181H6.41786ZM10.4778 10.0357H12.6543V12.7603H10.0642C10.2251 11.8988 10.3658 10.9902 10.4778 10.0357ZM9.88388 13.6685H12.6543V14.7735H9.63388C9.72034 14.4152 9.80402 14.0472 9.88388 13.6685ZM12.6543 9.12746H10.5739C10.613 8.71604 10.6468 8.29694 10.6744 7.87002H12.6543V9.12746ZM6.73301 12.7603H6.41786V10.0357H7.27351C7.12463 10.991 6.94014 11.9009 6.73301 12.7603ZM7.40206 9.12746H6.41786V7.87002H7.53804C7.50026 8.29645 7.45461 8.71574 7.40206 9.12746ZM21.6069 10.0357H22.4631V12.7603H22.1454C21.9375 11.8966 21.7545 10.9871 21.6069 10.0357ZM22.4631 7.87002V9.12746H21.4789C21.4266 8.71519 21.3804 8.29645 21.3428 7.87002H22.4631ZM22.3773 13.6685H22.4631V13.9805C22.4341 13.8773 22.4055 13.7732 22.3773 13.6685ZM22.4631 2.72461V3.32899H6.41786V2.72461H22.4631ZM6.41786 13.6685H6.50093C6.47345 13.7702 6.44584 13.8714 6.41786 13.9715V13.6685ZM7.04247 19.8313C5.86404 22.6497 4.74295 24.1695 4.73199 24.1842C4.65207 24.2913 4.62325 24.428 4.65334 24.5582C4.68337 24.6883 4.76923 24.7987 4.88802 24.8598L6.31875 25.596L2.25138 27.0721L1.08846 22.9045L2.51918 23.6408C2.71741 23.7428 2.96045 23.6858 3.09268 23.5062C5.63717 19.9905 7.99651 13.82 8.44994 7.86996H9.76484C9.4107 13.208 8.09792 17.3068 7.04247 19.8313ZM9.14841 16.5899C9.23487 16.296 9.31994 15.9934 9.40325 15.6817H12.6543V16.5899H9.14841ZM17.3815 26.8198L14.4405 29.9935L11.4994 26.8198H13.1084C13.3592 26.8198 13.5625 26.6165 13.5625 26.3657V7.87002H15.3184V26.3658C15.3184 26.6166 15.5217 26.8199 15.7725 26.8199L17.3815 26.8198ZM16.2266 16.5899V15.6817H19.4776C19.5609 15.9934 19.646 16.296 19.7325 16.5899H16.2266Z" fill="black"/>
</svg>
