<svg width="33" height="33" viewBox="0 0 33 33" fill="none" xmlns="http://www.w3.org/2000/svg">
<path d="M32.5156 26.8652H32.4834V21.6666C32.4834 20.4257 31.5926 19.3894 30.4168 19.1625V13.9171C30.4168 12.5105 29.2725 11.3662 27.8659 11.3662H5.13409C3.72746 11.3662 2.58316 12.5105 2.58316 13.9171V19.1625C1.40739 19.3894 0.516632 20.4257 0.516632 21.6666V26.8652H0.484406C0.216774 26.8652 0 27.0822 0 27.3496V32.5159C0 32.7835 0.216774 33.0003 0.484406 33.0003H3.06757C3.26546 33.0003 3.44371 32.8797 3.51723 32.6959L4.42863 30.4171H28.5714L29.4828 32.6959C29.5563 32.8797 29.7345 33.0003 29.9324 33.0003H32.5156C32.7832 33.0003 33 32.7835 33 32.5159V27.3496C33 27.0822 32.7832 26.8652 32.5156 26.8652ZM5.13409 12.335H27.8659C28.7385 12.335 29.448 13.0448 29.448 13.9171V19.1157H27.8337V15.5813L28.2992 14.6503C28.3924 14.464 28.3559 14.2387 28.2086 14.0914C28.061 13.9438 27.8357 13.9073 27.6494 14.0005L26.7843 14.433C25.6221 14.112 24.423 13.9494 23.2162 13.9494C22.0097 13.9494 20.8106 14.112 19.6484 14.433L18.7833 14.0005C18.5967 13.9073 18.3717 13.9438 18.2241 14.0914C18.0768 14.2387 18.0401 14.464 18.1335 14.6503L18.5988 15.5813V19.1157H14.4012V15.5813L14.8668 14.6503C14.9599 14.464 14.9234 14.2387 14.7759 14.0914C14.6286 13.9438 14.4033 13.9073 14.2169 14.0005L13.3516 14.433C12.1894 14.112 10.9903 13.9494 9.78378 13.9494C8.5773 13.9494 7.37787 14.112 6.2157 14.433L5.35062 14.0005C5.16405 13.9073 4.93897 13.9438 4.79169 14.0914C4.64415 14.2387 4.60764 14.464 4.7008 14.6503L5.16632 15.5813V19.1157H3.55197V13.9171C3.55197 13.0448 4.26171 12.335 5.13409 12.335ZM26.8661 19.6336C26.8097 19.6296 26.7523 19.6356 26.6972 19.6517C25.566 19.9818 24.3948 20.149 23.2162 20.149C22.0377 20.149 20.8667 19.9818 19.7355 19.6517C19.6912 19.6389 19.6454 19.6323 19.5998 19.6323C19.5887 19.6323 19.5776 19.6328 19.5663 19.6336C19.5673 19.6225 19.5676 19.6112 19.5676 19.6001V15.467C19.5676 15.456 19.5673 15.4446 19.5663 15.4336C19.6227 15.4376 19.6801 15.4315 19.7355 15.4154C20.8667 15.0854 22.0377 14.9182 23.2162 14.9182C24.3948 14.9182 25.566 15.0854 26.6969 15.4154C26.7523 15.4315 26.8097 15.4376 26.8661 15.4336C26.8654 15.4446 26.8649 15.456 26.8649 15.467V19.6001C26.8649 19.6112 26.8654 19.6225 26.8661 19.6336ZM13.4337 19.6336C13.377 19.6296 13.3199 19.6356 13.2645 19.6517C12.1333 19.9818 10.9623 20.149 9.78378 20.149C8.60525 20.149 7.43427 19.9818 6.30281 19.6517C6.2585 19.6389 6.21293 19.6323 6.16736 19.6323C6.15603 19.6323 6.14495 19.6328 6.13387 19.6336C6.13463 19.6225 6.13513 19.6112 6.13513 19.6001V15.467C6.13513 15.456 6.13463 15.4446 6.13387 15.4336C6.19027 15.4376 6.24767 15.4315 6.30281 15.4154C7.43427 15.0854 8.60525 14.9182 9.78378 14.9182C10.9623 14.9182 12.1333 15.0854 13.2645 15.4154C13.3199 15.4315 13.377 15.4376 13.4337 15.4336C13.4329 15.4446 13.4324 15.456 13.4324 15.467V19.6001C13.4324 19.6112 13.4329 19.6225 13.4337 19.6336ZM1.48544 23.1843H10.3649C10.6325 23.1843 10.8493 22.9675 10.8493 22.6999C10.8493 22.4325 10.6325 22.2155 10.3649 22.2155H1.48544V21.6666C1.48544 20.7942 2.19518 20.0845 3.06757 20.0845H4.86697L4.7008 20.4168C4.60764 20.6031 4.64415 20.8285 4.79169 20.9758C4.93897 21.1233 5.16431 21.1598 5.35062 21.0667L6.2157 20.6339C7.37787 20.9551 8.5773 21.1178 9.78378 21.1178C10.9903 21.1178 12.1894 20.9549 13.3516 20.6339L14.2169 21.0664C14.4012 21.1588 14.6301 21.1215 14.7759 20.9758C14.9234 20.8282 14.9599 20.6031 14.8668 20.4168L14.7006 20.0845H18.2994L18.1332 20.4168C18.0401 20.6031 18.0766 20.8285 18.2241 20.9758C18.3714 21.1233 18.5967 21.1598 18.7831 21.0667L19.6481 20.6341C20.8103 20.9551 22.0095 21.1178 23.2162 21.1178C24.4227 21.1178 25.6221 20.9551 26.784 20.6341L27.6491 21.0667C27.8337 21.1588 28.0625 21.1215 28.2083 20.9758C28.3556 20.8285 28.3924 20.6031 28.299 20.4168L28.133 20.0845H29.9324C30.8051 20.0845 31.5146 20.7942 31.5146 21.6666V22.2155H12.6467C12.3793 22.2155 12.1625 22.4325 12.1625 22.6999C12.1625 22.9675 12.3793 23.1843 12.6467 23.1843H31.5146V26.8652H1.48544V23.1843ZM32.0312 32.0315H30.2605L29.3488 29.753C29.2753 29.5689 29.0973 29.4483 28.8992 29.4483H4.10083C3.90269 29.4483 3.72469 29.5689 3.65117 29.753L2.73976 32.0315H0.968811V27.834H32.0312V32.0315Z" fill="black"/>
<path d="M10.3008 9.23492H22.7C22.9676 9.23492 23.1844 9.0179 23.1844 8.75052V0.484406C23.1844 0.216774 22.9676 0 22.7 0H10.3008C10.0332 0 9.81641 0.216774 9.81641 0.484406V8.75052C9.81641 9.0179 10.0332 9.23492 10.3008 9.23492ZM10.7852 0.968811H22.2156V8.26611H10.7852V0.968811Z" fill="black"/>
<path d="M21.149 1.5498H11.8496C11.5823 1.5498 11.3652 1.76658 11.3652 2.03421V7.20053C11.3652 7.46791 11.5823 7.68494 11.8496 7.68494H21.149C21.4166 7.68494 21.6334 7.46791 21.6334 7.20053V2.03421C21.6334 1.76658 21.4166 1.5498 21.149 1.5498ZM17.9679 2.51862C17.8312 2.82301 17.7443 3.11607 17.6899 3.36557C16.4427 2.86883 15.4411 3.21073 14.7863 3.62741C14.2558 3.96503 13.8847 4.39632 13.6901 4.65639C13.1717 4.68384 12.7193 4.79613 12.334 4.99024V2.51862H17.9679ZM20.6646 6.71613H12.334V6.17986C12.686 5.80698 13.2283 5.61841 13.9484 5.61841C14.1186 5.61841 14.2762 5.52903 14.3638 5.38326C14.4169 5.29463 15.6889 3.23012 17.8322 4.51591C17.9815 4.60554 18.1671 4.60705 18.3184 4.5222C18.4699 4.4371 18.5643 4.27647 18.5659 4.10275C18.5659 4.09369 18.5787 3.26511 19.0676 2.51862H20.6646V6.71613Z" fill="black"/>
<path d="M19.5996 6.13486C19.8673 6.13486 20.084 5.91783 20.084 5.65045V5.13382C20.084 4.86619 19.8673 4.64941 19.5996 4.64941C19.332 4.64941 19.1152 4.86619 19.1152 5.13382V5.65045C19.1152 5.91783 19.332 6.13486 19.5996 6.13486Z" fill="black"/>
<path d="M16.5 4.64941C16.2327 4.64941 16.0156 4.86619 16.0156 5.13382V5.65045C16.0156 5.91783 16.2327 6.13486 16.5 6.13486C16.7677 6.13486 16.9844 5.91783 16.9844 5.65045V5.13382C16.9844 4.86619 16.7677 4.64941 16.5 4.64941Z" fill="black"/>
</svg>
