<svg width="32" height="34" viewBox="0 0 32 34" fill="none" xmlns="http://www.w3.org/2000/svg">
<path d="M4.64063 15.2061C4.2327 15.2061 3.83394 15.327 3.49476 15.5536C3.15559 15.7803 2.89123 16.1024 2.73512 16.4793C2.57902 16.8561 2.53817 17.2708 2.61776 17.6709C2.69734 18.071 2.89377 18.4385 3.18222 18.727C3.47066 19.0154 3.83817 19.2118 4.23825 19.2914C4.63834 19.371 5.05304 19.3302 5.42991 19.1741C5.80678 19.018 6.1289 18.7536 6.35553 18.4144C6.58216 18.0752 6.70313 17.6765 6.70313 17.2686C6.70251 16.7217 6.48502 16.1975 6.09836 15.8108C5.71169 15.4242 5.18745 15.2067 4.64063 15.2061ZM4.64063 18.2998C4.43666 18.2998 4.23728 18.2393 4.06769 18.126C3.89811 18.0127 3.76593 17.8516 3.68788 17.6632C3.60982 17.4748 3.5894 17.2674 3.62919 17.0674C3.66898 16.8673 3.7672 16.6836 3.91142 16.5394C4.05564 16.3951 4.2394 16.2969 4.43944 16.2571C4.63948 16.2173 4.84683 16.2378 5.03527 16.3158C5.2237 16.3939 5.38476 16.526 5.49808 16.6956C5.61139 16.8652 5.67188 17.0646 5.67188 17.2686C5.67157 17.542 5.56282 17.8041 5.36949 17.9974C5.17616 18.1907 4.91404 18.2995 4.64063 18.2998Z" fill="black"/>
<path d="M0.151051 22.8971C0.085621 22.9625 0.0390022 23.0443 0.0160835 23.134C-0.0068352 23.2236 -0.00520928 23.3178 0.0207908 23.4066L0.494779 25.0248L0.0207908 26.643C-0.00522205 26.7319 -0.00685541 26.826 0.016062 26.9157C0.0389794 27.0053 0.0856029 27.0872 0.151041 27.1526C0.21648 27.218 0.298322 27.2647 0.387981 27.2876C0.47764 27.3105 0.571811 27.3088 0.660617 27.2828L2.27878 26.8088L3.89694 27.2828C3.98575 27.3088 4.07993 27.3105 4.1696 27.2876C4.25926 27.2647 4.34111 27.218 4.40655 27.1526C4.47199 27.0872 4.51861 27.0053 4.54152 26.9156C4.56444 26.826 4.56279 26.7318 4.53676 26.643L4.06278 25.0248L4.53676 23.4067C4.56278 23.3179 4.56441 23.2237 4.54149 23.134C4.51857 23.0444 4.47195 22.9625 4.40651 22.8971C4.34107 22.8317 4.25923 22.7851 4.16957 22.7621C4.07991 22.7392 3.98574 22.7409 3.89694 22.7669L2.27878 23.2409L0.660617 22.7669C0.571813 22.7409 0.477643 22.7392 0.387986 22.7621C0.298329 22.7851 0.216489 22.8317 0.151051 22.8971ZM1.52693 24.8799L1.27556 24.0215L2.13389 24.2729C2.22857 24.3007 2.32924 24.3007 2.42393 24.2729L3.28225 24.0215L3.03088 24.8799C3.00316 24.9746 3.00316 25.0752 3.03088 25.1699L3.28225 26.0282L2.42393 25.7769C2.32923 25.7491 2.22858 25.7491 2.13389 25.7769L1.27556 26.0282L1.52693 25.1698C1.55462 25.0752 1.5546 24.9746 1.52687 24.8799H1.52693Z" fill="black"/>
<path d="M22.6875 23.9717H16.5C16.3632 23.9717 16.2321 24.026 16.1354 24.1227C16.0387 24.2194 15.9844 24.3506 15.9844 24.4873V28.2256C15.9851 28.8749 16.2434 29.4975 16.7025 29.9566C17.1617 30.4158 17.7842 30.6741 18.4336 30.6748H20.7539C21.4033 30.6741 22.0258 30.4158 22.485 29.9566C22.9441 29.4975 23.2024 28.8749 23.2031 28.2256V24.4873C23.2031 24.3506 23.1488 24.2194 23.0521 24.1227C22.9554 24.026 22.8243 23.9717 22.6875 23.9717ZM22.1719 28.2256C22.1714 28.6015 22.0219 28.9619 21.7561 29.2278C21.4903 29.4936 21.1298 29.6431 20.7539 29.6436H18.4336C18.0577 29.6431 17.6972 29.4936 17.4314 29.2278C17.1656 28.9619 17.0161 28.6015 17.0156 28.2256V25.0029H22.1719V28.2256Z" fill="black"/>
<path d="M19.5938 22.9404C20.2056 22.9404 20.8038 22.759 21.3125 22.419C21.8213 22.0791 22.2178 21.5959 22.452 21.0306C22.6862 20.4653 22.7474 19.8432 22.6281 19.2431C22.5087 18.643 22.214 18.0917 21.7814 17.6591C21.3487 17.2264 20.7974 16.9317 20.1973 16.8124C19.5972 16.693 18.9751 16.7543 18.4098 16.9884C17.8445 17.2226 17.3613 17.6191 17.0214 18.1279C16.6814 18.6367 16.5 19.2348 16.5 19.8467C16.5009 20.6669 16.8272 21.4533 17.4072 22.0333C17.9871 22.6133 18.7735 22.9395 19.5938 22.9404ZM19.5938 17.7842C20.0017 17.7842 20.4004 17.9051 20.7396 18.1318C21.0788 18.3584 21.3431 18.6805 21.4993 19.0574C21.6554 19.4343 21.6962 19.849 21.6166 20.2491C21.537 20.6491 21.3406 21.0166 21.0522 21.3051C20.7637 21.5935 20.3962 21.79 19.9961 21.8696C19.596 21.9491 19.1813 21.9083 18.8045 21.7522C18.4276 21.5961 18.1055 21.3317 17.8788 20.9925C17.6522 20.6534 17.5312 20.2546 17.5312 19.8467C17.5319 19.2999 17.7494 18.7756 18.136 18.389C18.5227 18.0023 19.0469 17.7848 19.5938 17.7842Z" fill="black"/>
<path d="M17.0156 0.768555C15.5119 0.770261 14.0702 1.36838 13.0069 2.43169C11.9436 3.49501 11.3455 4.93668 11.3438 6.44043V8.96622L7.2542 28.9027L5.42405 31.1904H1.54688C1.41012 31.1904 1.27897 31.2448 1.18227 31.3415C1.08557 31.4382 1.03125 31.5693 1.03125 31.7061V33.2529C1.03125 33.3897 1.08557 33.5208 1.18227 33.6175C1.27897 33.7142 1.41012 33.7686 1.54688 33.7686H11.3438C11.4805 33.7686 11.6117 33.7142 11.7084 33.6175C11.8051 33.5208 11.8594 33.3897 11.8594 33.2529V31.7061C11.8594 31.5693 11.8051 31.4382 11.7084 31.3415C11.6117 31.2448 11.4805 31.1904 11.3438 31.1904H10.3125V29.1803L14.427 9.12245C14.4338 9.08836 14.4372 9.05365 14.437 9.01888H14.4375V6.53866C14.4375 5.06287 15.594 3.8623 17.0156 3.8623C18.4372 3.8623 19.5938 5.06287 19.5938 6.53866V11.5967H19.0781C18.9414 11.5967 18.8102 11.651 18.7135 11.7477C18.6168 11.8444 18.5625 11.9756 18.5625 12.1123V13.8853C17.2298 14.2539 16.0545 15.049 15.2164 16.1488C14.3784 17.2487 13.9237 18.5928 13.9219 19.9756V31.3193C13.9226 31.9687 14.1809 32.5912 14.64 33.0504C15.0992 33.5095 15.7217 33.7678 16.3711 33.7686H28.875C30.5809 33.7686 31.9688 32.1494 31.9688 30.1592C31.9688 28.3738 30.8518 26.8882 29.3906 26.6009V19.9756C29.3887 18.4125 28.8081 16.9054 27.7607 15.7451C26.7134 14.5847 25.2735 13.8533 23.7188 13.6918V12.1123C23.7188 11.9756 23.6644 11.8444 23.5677 11.7477C23.471 11.651 23.3399 11.5967 23.2031 11.5967H22.6875V6.44043C22.6858 4.93668 22.0877 3.49501 21.0244 2.43169C19.961 1.36838 18.5194 0.770261 17.0156 0.768555V0.768555ZM20.5747 5.9248H21.6269C21.6462 6.09601 21.656 6.26815 21.6562 6.44043V6.95605H20.625V6.53866C20.6248 6.33302 20.608 6.12773 20.5747 5.9248ZM20.625 7.9873H21.6562V9.01855H20.625V7.9873ZM21.3902 4.89355H20.249C20.1475 4.68391 20.0267 4.48423 19.888 4.29711L20.6392 3.5461C20.963 3.95017 21.2168 4.40562 21.3902 4.89355ZM19.1648 3.56202C18.9478 3.39631 18.7125 3.2559 18.4636 3.14352L19.2389 2.36828C19.4751 2.49813 19.6996 2.64825 19.9099 2.81694L19.1648 3.56202ZM12.375 7.47168H13.4062V8.50293H12.375V7.47168ZM12.6153 4.96954L13.6407 5.22587C13.4971 5.61521 13.4187 6.02557 13.4087 6.44043H12.375C12.375 5.94036 12.4561 5.4436 12.6153 4.96954ZM14.1487 4.28989L13.0594 4.01764C13.2881 3.64566 13.5677 3.30757 13.8902 3.0132L14.6336 3.75654C14.455 3.9181 14.2926 4.09671 14.1487 4.28982V4.28989ZM14.7362 2.40064C15.1265 2.17944 15.547 2.01642 15.9844 1.91672V2.98606C15.8211 3.03627 15.6617 3.09829 15.5074 3.17163L14.7362 2.40064ZM10.8281 32.7373H2.0625V32.2217H10.8281V32.7373ZM6.7447 31.1904L7.9822 29.6436H9.28125V31.1904H6.7447ZM9.37632 28.6123H8.36653L12.28 9.53418H13.2898L9.37632 28.6123ZM17.0156 1.7998C17.4141 1.7997 17.8109 1.85102 18.1962 1.95249L17.3047 2.84395C17.209 2.83621 17.113 2.83105 17.0156 2.83105V1.7998ZM20.625 10.0498H21.6562V11.5967H20.625V10.0498ZM19.5938 12.6279H22.6875V13.6592H20.2383C20.023 13.6591 19.8079 13.67 19.5938 13.6918V12.6279ZM14.9531 31.3193V19.9756C14.9547 18.5744 15.512 17.231 16.5029 16.2402C17.4937 15.2494 18.8371 14.692 20.2383 14.6904H20.6066C22.6069 14.6904 24.2344 17.0613 24.2344 19.9756V32.7373H16.3711C15.9952 32.7369 15.6347 32.5873 15.3689 32.3215C15.1031 32.0557 14.9536 31.6953 14.9531 31.3193ZM30.9375 30.1592C30.9375 31.5808 30.0123 32.7373 28.875 32.7373C27.7377 32.7373 26.8125 31.5808 26.8125 30.1592C26.8125 28.7376 27.7377 27.5811 28.875 27.5811C30.0123 27.5811 30.9375 28.7376 30.9375 30.1592ZM28.3594 19.9756V26.6009C26.8982 26.8882 25.7812 28.374 25.7812 30.1592C25.7812 31.1684 26.1386 32.0817 26.7128 32.7373H25.2656V19.9756C25.2656 18.3196 24.8005 16.7565 23.956 15.5741C23.7282 15.2524 23.4655 14.9569 23.1728 14.6929C24.5565 14.72 25.8745 15.2883 26.8441 16.2759C27.8137 17.2634 28.3577 18.5916 28.3594 19.9756Z" fill="black"/>
<path d="M18.0469 26.0342H19.0781V27.5811H18.0469V26.0342Z" fill="black"/>
<path d="M6.1875 20.8779H7.21875V21.9092H6.1875V20.8779Z" fill="black"/>
<path d="M11.8594 28.0967H12.8906V29.1279H11.8594V28.0967Z" fill="black"/>
<path d="M3.60938 28.6123H4.64062V29.6436H3.60938V28.6123Z" fill="black"/>
<path d="M0 19.6533H1.03125V20.6846H0V19.6533Z" fill="black"/>
</svg>
