<svg width="24" height="24" viewBox="0 0 24 24" fill="none" xmlns="http://www.w3.org/2000/svg">
<path d="M19.2344 7.27344L15.1328 6.10156L13.9609 2H5.17188C4.52465 2 4 2.52465 4 3.17188V20.8281C4 21.4754 4.52465 22 5.17188 22H18.0625C18.7097 22 19.2344 21.4754 19.2344 20.8281V7.27344Z" fill="#59C36A"/>
<path d="M19.2343 7.27344V20.8281C19.2343 21.4754 18.7097 22 18.0625 22H11.7109V2H13.9609L15.1328 6.10156L19.2343 7.27344Z" fill="#00A66C"/>
<path d="M19.2344 7.27344H15.1328C14.4883 7.27344 13.9609 6.74609 13.9609 6.10156V2C14.1133 2 14.2656 2.05859 14.3711 2.17582L19.0586 6.86332C19.1758 6.96875 19.2344 7.12109 19.2344 7.27344Z" fill="#A0DEB0"/>
<path d="M8.22383 15.07C7.69716 15.07 7.26216 14.895 6.91883 14.545C6.5755 14.195 6.40383 13.7633 6.40383 13.25C6.40383 12.7333 6.5755 12.3017 6.91883 11.955C7.26216 11.605 7.69716 11.43 8.22383 11.43C8.5405 11.43 8.83216 11.505 9.09883 11.655C9.36883 11.8017 9.57883 12.0017 9.72883 12.255L9.13383 12.6C9.04716 12.4433 8.92383 12.3217 8.76383 12.235C8.60383 12.145 8.42383 12.1 8.22383 12.1C7.88383 12.1 7.60883 12.2067 7.39883 12.42C7.19216 12.6333 7.08883 12.91 7.08883 13.25C7.08883 13.5867 7.19216 13.8617 7.39883 14.075C7.60883 14.2883 7.88383 14.395 8.22383 14.395C8.42383 14.395 8.60383 14.3517 8.76383 14.265C8.92716 14.175 9.0505 14.0533 9.13383 13.9L9.72883 14.245C9.57883 14.4983 9.3705 14.7 9.10383 14.85C8.83716 14.9967 8.54383 15.07 8.22383 15.07ZM11.3477 15.07C11.001 15.07 10.7094 14.9933 10.4727 14.84C10.236 14.6833 10.0694 14.4717 9.9727 14.205L10.5627 13.86C10.6994 14.2167 10.9677 14.395 11.3677 14.395C11.561 14.395 11.7027 14.36 11.7927 14.29C11.8827 14.22 11.9277 14.1317 11.9277 14.025C11.9277 13.9017 11.8727 13.8067 11.7627 13.74C11.6527 13.67 11.456 13.595 11.1727 13.515C11.016 13.4683 10.8827 13.4217 10.7727 13.375C10.666 13.3283 10.5577 13.2667 10.4477 13.19C10.341 13.11 10.2594 13.01 10.2027 12.89C10.146 12.77 10.1177 12.63 10.1177 12.47C10.1177 12.1533 10.2294 11.9017 10.4527 11.715C10.6794 11.525 10.951 11.43 11.2677 11.43C11.551 11.43 11.7994 11.5 12.0127 11.64C12.2294 11.7767 12.3977 11.9683 12.5177 12.215L11.9377 12.55C11.7977 12.25 11.5744 12.1 11.2677 12.1C11.1244 12.1 11.011 12.1333 10.9277 12.2C10.8477 12.2633 10.8077 12.3467 10.8077 12.45C10.8077 12.56 10.8527 12.65 10.9427 12.72C11.036 12.7867 11.2127 12.86 11.4727 12.94C11.5794 12.9733 11.6594 13 11.7127 13.02C11.7694 13.0367 11.8444 13.065 11.9377 13.105C12.0344 13.1417 12.1077 13.1767 12.1577 13.21C12.211 13.2433 12.271 13.2883 12.3377 13.345C12.4044 13.4017 12.4544 13.46 12.4877 13.52C12.5244 13.58 12.5544 13.6533 12.5777 13.74C12.6044 13.8233 12.6177 13.915 12.6177 14.015C12.6177 14.3383 12.4994 14.595 12.2627 14.785C12.0294 14.975 11.7244 15.07 11.3477 15.07ZM13.8351 15L12.6601 11.5H13.4101L14.2651 14.19L15.1151 11.5H15.8701L14.6901 15H13.8351Z" fill="white"/>
</svg>
