<svg width="15" height="10" viewBox="0 0 15 10" fill="none" xmlns="http://www.w3.org/2000/svg">
<path d="M7.66016 8.89057L13.892 2.65861C14.0363 2.51447 14.1157 2.32206 14.1157 2.1169C14.1157 1.91173 14.0363 1.71932 13.892 1.57519L13.4332 1.11625C13.1342 0.81761 12.6483 0.81761 12.3498 1.11625L7.11663 6.34937L1.87769 1.11044C1.73344 0.966301 1.54115 0.886718 1.3361 0.886718C1.13082 0.886718 0.938523 0.966301 0.794157 1.11044L0.335445 1.56938C0.191193 1.71363 0.111725 1.90593 0.111725 2.11109C0.111725 2.31625 0.191193 2.50866 0.335445 2.6528L6.57298 8.89057C6.71769 9.03504 6.91089 9.1144 7.11628 9.11394C7.32247 9.1144 7.51557 9.03504 7.66016 8.89057Z" fill="#09110E"/>
</svg>
