<svg width="30" height="31" viewBox="0 0 30 31" fill="none" xmlns="http://www.w3.org/2000/svg">
<path d="M16.5617 30.9999H25.4078C26.1669 30.9999 26.8574 30.5493 27.2098 29.8239C31.3254 21.3499 30.3802 13.7183 21.3035 10.9131C18.3815 10.0101 14.8673 8.53451 14.7192 6.63331C14.6008 5.11377 16.6181 3.32614 20.7153 1.32016C21.3611 1.00384 21.1401 0 20.4272 0C19.464 0 18.1399 0 17.1326 0C16.5626 0 16.0094 0.129131 15.4884 0.383724C14.22 1.00374 12.5459 1.88843 10.9276 2.94469C6.11934 5.64228 3.65742 8.25536 3.61038 10.7113C3.57817 12.3926 4.68339 13.9318 6.89527 15.2861C8.89908 16.5129 9.91527 17.889 9.91564 19.3762C9.91672 23.3422 2.80933 27.6989 0.473748 29.1306C-0.368035 29.6467 -0.0137771 31 0.953054 31H14.4426C14.6934 31 14.8967 30.7967 14.8967 30.5459C14.8967 30.2952 14.6934 30.0918 14.4426 30.0918H4.40698C12.1406 25.0078 16.884 18.6091 8.99083 13.7759C4.0702 10.763 6.11712 7.33123 10.8949 4.05844C12.6299 2.87201 14.5041 1.87576 15.8873 1.19971C16.283 1.00633 16.702 0.908262 17.1326 0.908262H18.3379C15.932 2.2064 12.4034 4.51732 12.5492 7.24697C12.6051 8.29392 13.1982 9.28495 14.312 10.1926C15.489 11.1518 17.2951 12.0513 19.6797 12.8662C23.8231 14.2821 26.0872 16.6287 26.4094 19.8407C26.4345 20.0902 26.6568 20.2723 26.9065 20.2472C27.1561 20.2222 27.3381 19.9996 27.3131 19.7501C26.9523 16.153 24.4829 13.5478 19.9735 12.0068C15.8016 10.5811 13.5479 8.91844 13.456 7.19848C13.4219 6.56047 13.674 5.96062 14.028 5.42946C12.6717 8.73037 17.6165 10.7242 21.0352 11.7807C24.4865 12.8473 26.7879 14.6589 27.8756 17.1652C29.712 21.3964 27.7348 26.6638 26.3928 29.4271C26.1937 29.837 25.8162 30.0917 25.4077 30.0917H23.9373C25.5079 27.707 26.9284 24.7946 27.2764 21.9701C27.3071 21.7212 27.1302 21.4945 26.8813 21.4638C26.6327 21.4337 26.4057 21.6101 26.3751 21.859C26.1997 23.2819 25.505 26.226 22.8413 30.0917H16.5617C16.3108 30.0917 16.1076 30.295 16.1076 30.5458C16.1076 30.7966 16.3109 30.9999 16.5617 30.9999ZM2.71442 30.0917H0.953105C0.947884 30.0917 0.945455 30.0912 0.945455 30.0912H0.945248C0.935426 30.0857 0.910303 30.0491 0.908907 29.9947C0.907356 29.93 0.938166 29.9111 0.948298 29.9049C5.18813 27.3059 10.8248 23.3867 10.8237 19.3759C10.8233 17.5513 9.66104 15.9147 7.36935 14.5115C4.45232 12.7255 3.55491 10.6539 5.71913 8.02398C4.43226 10.6841 5.81202 12.8279 8.31297 14.4232C8.49385 14.5385 8.54973 14.5688 8.73795 14.6888C16.1304 19.4007 10.1612 25.5131 2.71442 30.0917Z" fill="black"/>
</svg>
