<svg width="21" height="20" viewBox="0 0 21 20" fill="none" xmlns="http://www.w3.org/2000/svg">
<path d="M10.3796 19.7192C7.78724 19.7192 5.35003 18.7096 3.51691 16.8766C1.68386 15.0435 0.674316 12.6063 0.674316 10.0139C0.674316 7.42151 1.68386 4.98431 3.51691 3.15118C5.35003 1.31813 7.78724 0.308594 10.3796 0.308594C12.972 0.308594 15.4092 1.31813 17.2423 3.15118C19.0754 4.98431 20.0849 7.42151 20.0849 10.0139C20.0849 12.6063 19.0754 15.0435 17.2423 16.8766C15.4092 18.7096 12.972 19.7192 10.3796 19.7192ZM10.3796 1.82505C5.86426 1.82505 2.19077 5.49854 2.19077 10.0139C2.19077 14.5292 5.86426 18.2027 10.3796 18.2027C14.895 18.2027 18.5685 14.5292 18.5685 10.0139C18.5685 5.49854 14.895 1.82505 10.3796 1.82505ZM13.9333 11.6891C13.58 11.4643 13.1114 11.5684 12.8866 11.9217C12.8772 11.9364 11.9336 13.3903 10.3417 13.3903C8.7498 13.3903 7.80619 11.9364 7.79683 11.9217C7.57201 11.5684 7.10339 11.4643 6.7501 11.6891C6.3968 11.9139 6.29266 12.3826 6.51747 12.7358C6.57388 12.8245 7.92671 14.9068 10.3417 14.9068C12.7567 14.9068 14.1095 12.8245 14.1659 12.7358C14.3907 12.3826 14.2866 11.9139 13.9333 11.6891ZM7.04342 6.56396C7.56686 6.56396 7.9912 6.9883 7.9912 7.51174C7.9912 8.03518 7.56686 8.45953 7.04342 8.45953C6.51998 8.45953 6.09563 8.03518 6.09563 7.51174C6.09563 6.9883 6.51998 6.56396 7.04342 6.56396ZM12.7301 7.51174C12.7301 8.03518 13.1545 8.45953 13.6779 8.45953C14.2013 8.45953 14.6257 8.03518 14.6257 7.51174C14.6257 6.9883 14.2013 6.56396 13.6779 6.56396C13.1545 6.56396 12.7301 6.9883 12.7301 7.51174Z" fill="#898A8D"/>
</svg>
