<svg width="31" height="31" viewBox="0 0 31 31" fill="none" xmlns="http://www.w3.org/2000/svg">
<path fill-rule="evenodd" clip-rule="evenodd" d="M24.9488 17.6906V3.75107C24.9488 1.68278 23.266 0 21.1977 0C19.1292 0 17.4464 1.68278 17.4464 3.75107V17.6906C16.1087 18.5113 15.0697 19.7513 14.5005 21.2167C14.3794 21.5284 14.5338 21.8794 14.8455 22.0005C15.157 22.1214 15.508 21.9669 15.6291 21.6552C16.1392 20.3426 17.1026 19.247 18.3419 18.5709C18.5365 18.4649 18.6574 18.261 18.6574 18.0394V3.75107C18.6574 2.35045 19.7969 1.21094 21.1977 1.21094C22.5984 1.21094 23.7379 2.35045 23.7379 3.75107V18.0394C23.7379 18.261 23.859 18.4649 24.0534 18.5709C25.9755 19.6196 27.1697 21.6299 27.1697 23.8172C27.1697 27.1101 24.4905 29.7891 21.1975 29.7891C18.7141 29.7891 16.5283 28.2936 15.6291 25.9789C15.508 25.6671 15.1572 25.5127 14.8455 25.6338C14.5338 25.7549 14.3791 26.1056 14.5002 26.4174C15.0269 27.7728 15.9396 28.9234 17.1399 29.7446C18.3402 30.5658 19.7434 31 21.1977 31C25.1584 31 28.3806 27.7778 28.3806 23.8172C28.3806 21.3085 27.0746 18.9933 24.9488 17.6906Z" fill="black"/>
<path fill-rule="evenodd" clip-rule="evenodd" d="M21.1957 5.29102C20.8613 5.29102 20.5903 5.56206 20.5903 5.89648V19.6818C18.5712 19.9762 17.0156 21.7184 17.0156 23.8176C17.0156 26.1225 18.8907 27.9977 21.1957 27.9977C23.5005 27.9977 25.3758 26.1225 25.3758 23.8176C25.3758 21.7184 23.8201 19.9762 21.8012 19.6818V5.89648C21.8012 5.56206 21.5302 5.29102 21.1957 5.29102ZM24.1649 23.8176C24.1649 25.4548 22.8329 26.7868 21.1957 26.7868C19.5584 26.7868 18.2266 25.4548 18.2266 23.8176C18.2266 22.1803 19.5584 20.8483 21.1957 20.8483C22.8329 20.8483 24.1649 22.1803 24.1649 23.8176Z" fill="black"/>
<path fill-rule="evenodd" clip-rule="evenodd" d="M27.2344 6.96191H30.38C30.7144 6.96191 30.9854 6.69087 30.9854 6.35645C30.9854 6.02202 30.7144 5.75098 30.38 5.75098H27.2344C26.8999 5.75098 26.6289 6.02202 26.6289 6.35645C26.6289 6.69087 26.8999 6.96191 27.2344 6.96191Z" fill="black"/>
<path fill-rule="evenodd" clip-rule="evenodd" d="M30.38 8.54785H27.2344C26.8999 8.54785 26.6289 8.81889 26.6289 9.15332C26.6289 9.48751 26.8999 9.75879 27.2344 9.75879H30.38C30.7144 9.75879 30.9854 9.48751 30.9854 9.15332C30.9854 8.81889 30.7144 8.54785 30.38 8.54785Z" fill="black"/>
<path fill-rule="evenodd" clip-rule="evenodd" d="M30.38 11.3438H27.2344C26.8999 11.3438 26.6289 11.6148 26.6289 11.9492C26.6289 12.2836 26.8999 12.5547 27.2344 12.5547H30.38C30.7144 12.5547 30.9854 12.2836 30.9854 11.9492C30.9854 11.6148 30.7144 11.3438 30.38 11.3438Z" fill="black"/>
<path fill-rule="evenodd" clip-rule="evenodd" d="M30.38 14.1406H27.2344C26.8999 14.1406 26.6289 14.4119 26.6289 14.7461C26.6289 15.0805 26.8999 15.3516 27.2344 15.3516H30.38C30.7144 15.3516 30.9854 15.0805 30.9854 14.7461C30.9854 14.4117 30.7144 14.1406 30.38 14.1406Z" fill="black"/>
<path fill-rule="evenodd" clip-rule="evenodd" d="M8.23501 6.00293C6.77834 6.00293 5.39901 6.70915 4.5452 7.89171C4.34961 8.16275 4.41063 8.54117 4.68167 8.737C4.95295 8.93259 5.33136 8.87157 5.52696 8.60053C6.15395 7.7323 7.16622 7.21387 8.23501 7.21387C10.0751 7.21387 11.5722 8.71098 11.5722 10.5513C11.5722 12.3916 10.0751 13.8887 8.23501 13.8887C7.16598 13.8887 6.15371 13.3703 5.52696 12.502C5.33136 12.231 4.95295 12.17 4.68167 12.3656C4.41063 12.5614 4.34961 12.9398 4.5452 13.2108C5.39901 14.3936 6.77834 15.0996 8.23501 15.0996C10.7427 15.0996 12.7831 13.0592 12.7831 10.5513C12.7831 8.04331 10.743 6.00293 8.23501 6.00293Z" fill="black"/>
<path fill-rule="evenodd" clip-rule="evenodd" d="M8.23535 4.96037C8.56978 4.96037 8.84082 4.68932 8.84082 4.3549V2.92188C8.84082 2.58768 8.56978 2.31641 8.23535 2.31641C7.90092 2.31641 7.62988 2.58768 7.62988 2.92188V4.3549C7.62988 4.68932 7.90092 4.96037 8.23535 4.96037Z" fill="black"/>
<path fill-rule="evenodd" clip-rule="evenodd" d="M3.42595 6.59755C3.5442 6.71581 3.69912 6.77493 3.85403 6.77493C4.00895 6.77493 4.16386 6.71581 4.28212 6.59755C4.51863 6.36127 4.51863 5.97789 4.28212 5.74138L3.26891 4.72816C3.03239 4.49165 2.64901 4.49165 2.41273 4.72816C2.17622 4.96444 2.17622 5.34782 2.41273 5.58434L3.42595 6.59755Z" fill="black"/>
<path fill-rule="evenodd" clip-rule="evenodd" d="M13.8262 10.5508C13.8262 10.8852 14.0972 11.1562 14.4316 11.1562H15.8647C16.1991 11.1562 16.4701 10.8852 16.4701 10.5508C16.4701 10.2164 16.1991 9.94531 15.8647 9.94531H14.4316C14.0972 9.94531 13.8262 10.2164 13.8262 10.5508Z" fill="black"/>
<path fill-rule="evenodd" clip-rule="evenodd" d="M12.6172 6.77493C12.7721 6.77493 12.927 6.71581 13.0453 6.59779L14.0585 5.58434C14.295 5.34806 14.295 4.96468 14.0585 4.72816C13.8222 4.49165 13.4388 4.49165 13.2023 4.72816L12.1891 5.74138C11.9526 5.97789 11.9526 6.36127 12.1891 6.59779C12.3071 6.71581 12.4623 6.77493 12.6172 6.77493Z" fill="black"/>
<path fill-rule="evenodd" clip-rule="evenodd" d="M2.64396 10.5508C2.64396 10.2164 2.37292 9.94531 2.03849 9.94531H0.605469C0.271042 9.94531 0 10.2164 0 10.5508C0 10.8852 0.271042 11.1562 0.605469 11.1562H2.03849C2.37292 11.1562 2.64396 10.8852 2.64396 10.5508Z" fill="black"/>
<path fill-rule="evenodd" clip-rule="evenodd" d="M8.23535 16.1426C7.90092 16.1426 7.62988 16.4136 7.62988 16.748V18.1811C7.62988 18.5155 7.90092 18.7865 8.23535 18.7865C8.56978 18.7865 8.84082 18.5155 8.84082 18.1811V16.748C8.84082 16.4136 8.56978 16.1426 8.23535 16.1426Z" fill="black"/>
<path fill-rule="evenodd" clip-rule="evenodd" d="M14.0585 15.5187L13.0453 14.5055C12.8088 14.269 12.4254 14.269 12.1891 14.5055C11.9526 14.742 11.9526 15.1254 12.1891 15.3619L13.2023 16.3751C13.3206 16.4931 13.4755 16.5523 13.6304 16.5523C13.7853 16.5523 13.9402 16.4931 14.0585 16.3751C14.295 16.1386 14.295 15.7552 14.0585 15.5187Z" fill="black"/>
<path fill-rule="evenodd" clip-rule="evenodd" d="M3.42595 14.5045L2.41273 15.5177C2.17622 15.754 2.17622 16.1374 2.41273 16.3739C2.53075 16.4922 2.68591 16.5513 2.84082 16.5513C2.99574 16.5513 3.15065 16.4922 3.26891 16.3739L4.28212 15.3607C4.51863 15.1244 4.51863 14.741 4.28212 14.5045C4.04561 14.268 3.66246 14.268 3.42595 14.5045Z" fill="black"/>
<path fill-rule="evenodd" clip-rule="evenodd" d="M15.2239 23.8174C15.2239 23.4839 14.9519 23.2119 14.6184 23.2119C14.2849 23.2119 14.0127 23.4839 14.0127 23.8174C14.0127 24.1509 14.2849 24.4229 14.6184 24.4229C14.9519 24.4229 15.2239 24.1509 15.2239 23.8174Z" fill="black"/>
<path fill-rule="evenodd" clip-rule="evenodd" d="M3.6875 10.5508C3.6875 10.8843 3.95949 11.1562 4.29297 11.1562C4.62645 11.1562 4.89844 10.8843 4.89844 10.5508C4.89844 10.2173 4.62645 9.94531 4.29297 9.94531C3.95949 9.94531 3.6875 10.2173 3.6875 10.5508Z" fill="black"/>
</svg>
