<svg width="31" height="31" viewBox="0 0 31 31" fill="none" xmlns="http://www.w3.org/2000/svg">
<path d="M27.553 21.611C27.4405 21.4983 27.2842 21.4336 27.125 21.4336C26.9658 21.4336 26.8096 21.4983 26.6969 21.611C26.5843 21.7237 26.5195 21.8792 26.5195 22.0391C26.5195 22.1983 26.5843 22.3545 26.6969 22.4671C26.8096 22.5797 26.9658 22.6445 27.125 22.6445C27.2842 22.6445 27.4405 22.5797 27.553 22.4671C27.6657 22.3545 27.7305 22.1983 27.7305 22.0391C27.7305 21.8798 27.6657 21.7236 27.553 21.611Z" fill="black"/>
<path d="M30.3946 29.7891H27.7305V24.1582C27.7305 23.8239 27.4594 23.5527 27.125 23.5527C26.7907 23.5527 26.5196 23.8239 26.5196 24.1582V29.7891H7.38673V24.0976C7.38673 23.7633 7.1156 23.4922 6.78126 23.4922C6.44692 23.4922 6.17579 23.7633 6.17579 24.0976V29.7891H4.48048V13.8653L15.5 5.26239L26.5196 13.8653V19.6172C26.5196 19.9515 26.7907 20.2226 27.125 20.2226C27.4594 20.2226 27.7305 19.9515 27.7305 19.6172V14.8107L27.8363 14.8934C27.9464 14.9793 28.0778 15.0216 28.2087 15.0216C28.3644 15.0216 28.5196 14.9617 28.637 14.8443L30.8209 12.6603C30.9435 12.5377 31.0077 12.3682 30.9971 12.1951C30.9864 12.0219 30.9021 11.8616 30.7653 11.7549L27.125 8.91295V2.84566C27.125 2.51126 26.8539 2.24019 26.5196 2.24019H23.0104C22.6761 2.24019 22.4049 2.51126 22.4049 2.84566V5.22794L15.8726 0.128193C15.6537 -0.042731 15.3464 -0.042731 15.1274 0.128193L0.23468 11.7549C0.0979044 11.8616 0.0135625 12.0219 0.00290625 12.1951C-0.00768946 12.3682 0.0564903 12.5376 0.179098 12.6603L2.36297 14.8443C2.57912 15.0603 2.92266 15.0815 3.1637 14.8934L3.26954 14.8107V29.7891H0.60547C0.271129 29.7891 0 30.0602 0 30.3945C0 30.7289 0.271129 31 0.60547 31H30.3946C30.7289 31 31 30.7289 31 30.3945C31 30.0602 30.7289 29.7891 30.3946 29.7891ZM23.6159 3.45113H25.9141V7.96757L23.6159 6.17332V3.45113ZM2.84062 13.6093L1.51949 12.2881L15.5 1.37352L29.4806 12.2881L28.1594 13.6093L15.8726 4.017C15.7631 3.93151 15.6316 3.88876 15.5 3.88876C15.3685 3.88876 15.2369 3.93151 15.1275 4.017L2.84062 13.6093Z" fill="black"/>
<path d="M21.3125 13.1992H9.6875C9.35316 13.1992 9.08203 13.4703 9.08203 13.8047V25.4297C9.08203 25.764 9.35316 26.0352 9.6875 26.0352H21.3125C21.6469 26.0352 21.918 25.764 21.918 25.4297V13.8047C21.918 13.4703 21.6469 13.1992 21.3125 13.1992ZM14.8945 24.8242H10.293V20.2227H14.8945V24.8242ZM14.8945 19.0117H10.293V14.4102H14.8945V19.0117ZM20.707 24.8242H16.1055V20.2227H20.707V24.8242ZM20.707 19.0117H16.1055V14.4102H20.707V19.0117Z" fill="black"/>
<path d="M6.78125 21.1011C6.44691 21.1011 6.17578 21.3721 6.17578 21.7065V21.7163C6.17578 22.0506 6.44691 22.3218 6.78125 22.3218C7.11559 22.3218 7.38672 22.0506 7.38672 21.7163V21.7065C7.38672 21.3722 7.11559 21.1011 6.78125 21.1011Z" fill="black"/>
</svg>
