<svg width="29" height="31" viewBox="0 0 29 31" fill="none" xmlns="http://www.w3.org/2000/svg">
<path d="M27.6844 5.46873L13.0425 0.0378023C12.8566 -0.0311605 12.6489 -0.00470154 12.4862 0.10846C12.3235 0.221623 12.2265 0.40732 12.2265 0.605489V8.05656L0.359648 13.3277C0.140953 13.4248 0 13.6417 0 13.881V30.3945C0 30.7289 0.271068 31 0.605468 31H27.4739C27.8083 31 28.0794 30.7289 28.0794 30.3945V6.03642C28.0794 5.78321 27.9218 5.55677 27.6844 5.46873ZM1.21094 27.4431H12.2265V29.7891H1.21094V27.4431ZM8.94912 26.2322H4.48822V22.6473H8.94912V26.2322ZM18.591 29.7891V24.1908H21.7148V29.7891H18.591ZM26.8684 29.7891H25.544V26.2663C25.544 25.9319 25.273 25.6609 24.9386 25.6609C24.6042 25.6609 24.3331 25.9319 24.3331 26.2663V29.7891H22.9257V23.5854C22.9257 23.251 22.6546 22.9799 22.3202 22.9799H17.9856C17.6512 22.9799 17.3801 23.251 17.3801 23.5854V29.7891H15.9726V26.2663C15.9726 25.9319 15.7015 25.6609 15.3671 25.6609C15.0327 25.6609 14.7616 25.9319 14.7616 26.2663V29.7891H13.4374V20.6364C13.4374 20.302 13.1663 20.031 12.8319 20.031C12.4975 20.031 12.2265 20.302 12.2265 20.6364V26.2322H10.1601V22.0419C10.1601 21.7075 9.88905 21.4364 9.55465 21.4364H3.88275C3.54835 21.4364 3.27728 21.7075 3.27728 22.0419V26.2322H1.21094V14.2746L12.2265 9.38163V15.1623C12.2265 15.4967 12.4975 15.7677 12.8319 15.7677C13.1663 15.7677 13.4374 15.4967 13.4374 15.1623V1.47585L26.8684 6.45758V29.7891Z" fill="black"/>
<path d="M12.8325 18.5158C12.5801 18.5158 12.3476 18.3521 12.2631 18.1142C12.1786 17.8765 12.2523 17.6027 12.4484 17.4424C12.6472 17.28 12.9339 17.2616 13.1519 17.3965C13.3684 17.5305 13.4791 17.7942 13.4231 18.0425C13.3618 18.3153 13.1127 18.5158 12.8325 18.5158Z" fill="black"/>
<path d="M9.55551 19.7059H3.88379C3.54939 19.7059 3.27832 19.4349 3.27832 19.1005V15.7412C3.27832 15.4975 3.42436 15.2776 3.64899 15.1831L7.42469 13.5943C7.49904 13.563 7.57884 13.5469 7.65949 13.5469H9.55545C9.88985 13.5469 10.1609 13.8179 10.1609 14.1523V19.1005C10.161 19.4349 9.88991 19.7059 9.55551 19.7059ZM4.48926 18.495H8.94998V14.7578H7.78167L4.48926 16.1432V18.495Z" fill="black"/>
<path d="M24.9382 13.1663H21.6035C21.2691 13.1663 20.998 12.8952 20.998 12.5608V8.41947C20.998 8.2213 21.095 8.0356 21.2578 7.92244C21.4205 7.80922 21.6283 7.78282 21.8142 7.85178L25.1488 9.08881C25.3862 9.17685 25.5437 9.4033 25.5437 9.6565V12.5608C25.5437 12.8952 25.2726 13.1663 24.9382 13.1663ZM22.209 11.9553H24.3327V10.0777L22.209 9.28983V11.9553Z" fill="black"/>
<path d="M18.7024 13.1663H15.3672C15.0328 13.1663 14.7617 12.8953 14.7617 12.5609V6.31836C14.7617 5.98396 15.0328 5.71289 15.3672 5.71289H15.9391C16.011 5.71289 16.0822 5.72567 16.1496 5.75067L18.9129 6.77531C19.1503 6.86334 19.3079 7.08979 19.3079 7.34299V12.5609C19.3079 12.8953 19.0368 13.1663 18.7024 13.1663ZM15.9727 11.9554H18.0969V7.76422L15.9727 6.9765V11.9554Z" fill="black"/>
<path d="M24.9386 21H21.6035C21.2691 21 20.998 20.7289 20.998 20.3945V15.3594C20.998 15.025 21.2691 14.7539 21.6035 14.7539H24.9386C25.273 14.7539 25.5441 15.025 25.5441 15.3594V20.3945C25.5441 20.7289 25.273 21 24.9386 21ZM22.209 19.789H24.3332V15.9648H22.209V19.789Z" fill="black"/>
<path d="M18.7022 21H15.3672C15.0328 21 14.7617 20.7289 14.7617 20.3945V15.3594C14.7617 15.025 15.0328 14.7539 15.3672 14.7539H18.7022C19.0366 14.7539 19.3077 15.025 19.3077 15.3594V20.3945C19.3077 20.7289 19.0366 21 18.7022 21ZM15.9726 19.789H18.0967V15.9648H15.9726V19.789Z" fill="black"/>
</svg>
