<svg width="33" height="33" viewBox="0 0 33 33" fill="none" xmlns="http://www.w3.org/2000/svg">
<path d="M31.4032 6.3871H30.871V1.06452C30.871 0.477435 30.3935 0 29.8065 0H25.5484C24.9613 0 24.4839 0.477435 24.4839 1.06452V6.3871H23.3214C23.381 6.21997 23.4194 6.04219 23.4194 5.85484C23.4194 5.44447 23.2591 5.07348 23.0042 4.79032C23.2591 4.50716 23.4194 4.13618 23.4194 3.72581V1.59677C23.4194 0.716419 22.7029 0 21.8226 0H12.2419C11.3616 0 10.6452 0.716419 10.6452 1.59677V3.72581C10.6452 4.13618 10.8054 4.50716 11.0603 4.79032C10.8048 5.07348 10.6452 5.44447 10.6452 5.85484C10.6452 6.04219 10.6835 6.21997 10.7431 6.3871H10.1129C9.23255 6.3871 8.51613 7.10352 8.51613 7.98387V12.8013C8.33942 12.7896 8.16377 12.7742 7.98387 12.7742C4.51089 12.7742 1.41155 15.0624 0.372581 18.3586C0.146371 18.5545 0 18.8398 0 19.1613V22.3548C0 22.6763 0.146371 22.9621 0.373113 23.1575C1.41208 26.4538 4.51089 28.7419 7.98387 28.7419C8.16377 28.7419 8.33942 28.7265 8.51613 28.7148V31.4032C8.51613 32.2836 9.23255 33 10.1129 33H31.4032C32.2836 33 33 32.2836 33 31.4032V7.98387C33 7.10352 32.2836 6.3871 31.4032 6.3871ZM25.5484 1.06452H29.8065V6.3871H28.9623L26.9892 4.41402L26.2366 5.16663L27.4571 6.3871H25.5484V1.06452ZM11.7097 1.59677C11.7097 1.3035 11.9481 1.06452 12.2419 1.06452H21.8226C22.1164 1.06452 22.3548 1.3035 22.3548 1.59677V3.72581C22.3548 4.01908 22.1164 4.25806 21.8226 4.25806H12.2419C11.9481 4.25806 11.7097 4.01908 11.7097 3.72581V1.59677ZM11.7097 5.85484C11.7097 5.56156 11.9481 5.32258 12.2419 5.32258H21.8226C22.1164 5.32258 22.3548 5.56156 22.3548 5.85484C22.3548 6.14811 22.1164 6.3871 21.8226 6.3871H12.2419C11.9481 6.3871 11.7097 6.14811 11.7097 5.85484ZM10.1129 7.45161H31.4032C31.697 7.45161 31.9355 7.6906 31.9355 7.98387V10.6452H9.58065V7.98387C9.58065 7.6906 9.8191 7.45161 10.1129 7.45161ZM2.12956 20.7682L2.1301 22.3548H1.06452V19.1613H2.12903L2.12956 20.748C2.12956 20.7511 2.12903 20.7549 2.12903 20.7581C2.12903 20.7618 2.12956 20.765 2.12956 20.7682ZM1.60103 23.4194H2.12903C2.33768 23.4194 2.53089 23.3571 2.69482 23.2528C3.63426 25.2354 5.64832 26.6129 7.98387 26.6129C11.212 26.6129 13.8387 23.9862 13.8387 20.7581C13.8387 17.5299 11.212 14.9032 7.98387 14.9032C5.64832 14.9032 3.63426 16.2807 2.69482 18.2634C2.53089 18.159 2.33768 18.0968 2.12903 18.0968H1.60103C2.66342 15.5568 5.1826 13.8387 7.98387 13.8387C11.7991 13.8387 14.9032 16.9428 14.9032 20.7581C14.9032 24.5733 11.7991 27.6774 7.98387 27.6774C5.1826 27.6774 2.66342 25.9593 1.60103 23.4194ZM7.98387 15.9677C10.6255 15.9677 12.7742 18.1165 12.7742 20.7581C12.7742 23.3997 10.6255 25.5484 7.98387 25.5484C5.34227 25.5484 3.19355 23.3997 3.19355 20.7581C3.19355 18.1165 5.34227 15.9677 7.98387 15.9677ZM23.9378 29.1209L23.4162 24.4253L22.358 24.543L22.8546 29.0113L21.7332 29.7591C21.557 29.8767 21.2903 29.7351 21.2903 29.5217V23.4194H20.2258V28.4157C19.3928 28.116 18.4741 28.1091 17.6326 28.4103L18.0207 23.3661C18.059 22.8669 18.2756 22.3969 18.6296 22.0429C18.9143 21.7592 19.4093 21.7592 19.6941 22.0429L19.7202 22.069L18.9526 22.398L19.3715 23.3762L22.4847 22.0424C22.8238 21.8966 23.1846 21.8226 23.5546 21.8226C23.7323 21.8226 23.9101 21.8646 24.0692 21.9445C24.3774 22.0983 24.5983 22.3793 24.676 22.7146L26.062 28.7206C26.0743 28.7755 26.0806 28.8308 26.0806 28.8867C26.0806 29.2071 25.8763 29.4908 25.5723 29.592L25.0566 29.7633C24.6771 29.8927 24.2326 29.7101 24.0506 29.3455L23.9378 29.1209ZM25.4238 21.8082C25.2104 21.466 24.9161 21.1775 24.5456 20.9917C24.239 20.839 23.8963 20.7581 23.5546 20.7581C23.0393 20.7581 22.5379 20.8608 22.0642 21.0641L20.7735 21.6171L20.4462 21.2903C19.7601 20.6042 18.5625 20.6042 17.8764 21.2903C17.3431 21.8236 17.0174 22.5321 16.9588 23.2842L16.9317 23.6365C16.3121 22.8142 15.9677 21.8103 15.9677 20.7581C15.9677 18.1165 18.1165 15.9677 20.7581 15.9677C23.3997 15.9677 25.5484 18.1165 25.5484 20.7581C25.5484 21.1131 25.501 21.4644 25.4238 21.8082ZM16.821 25.08L16.7214 26.3739C16.0417 25.8842 15.4626 25.2695 14.998 24.569C15.2061 24.1874 15.3769 23.7834 15.5212 23.3677C15.84 24.0075 16.2796 24.5866 16.821 25.08ZM25.9407 23.4619C26.375 22.63 26.6129 21.7028 26.6129 20.7581C26.6129 17.5299 23.9862 14.9032 20.7581 14.9032C18.4662 14.9032 16.4835 16.2301 15.5228 18.1527C15.378 17.7348 15.2066 17.3293 14.9974 16.9466C16.2844 15.0001 18.4103 13.8387 20.7581 13.8387C24.5733 13.8387 27.6774 16.9428 27.6774 20.7581C27.6774 22.284 27.1814 23.7265 26.2771 24.9198L25.9407 23.4619ZM31.4032 31.9355H10.1129C9.8191 31.9355 9.58065 31.697 9.58065 31.4032V28.5812C11.5314 28.1836 13.2186 27.0675 14.371 25.5282C14.9852 26.3494 15.7511 27.0419 16.6288 27.5747L16.4292 30.1716L17.6832 29.5435C18.4917 29.139 19.4445 29.163 20.2317 29.5845C20.2657 30.2988 20.8528 30.871 21.5751 30.871C21.8423 30.871 22.101 30.7927 22.3234 30.6442L23.2267 30.0417C23.5769 30.5591 24.1576 30.871 24.7947 30.871C25.0002 30.871 25.2024 30.838 25.3946 30.773L25.9093 30.6016C26.648 30.3552 27.1452 29.6659 27.1452 28.8867C27.1452 28.7499 27.1297 28.6126 27.0989 28.4806L26.5751 26.2121C27.9702 24.7276 28.7419 22.8067 28.7419 20.7581C28.7419 16.3558 25.1604 12.7742 20.7581 12.7742C18.2022 12.7742 15.8682 13.9606 14.3651 15.98C13.2128 14.445 11.5282 13.332 9.58065 12.9349V11.7097H31.9355V31.4032C31.9355 31.697 31.697 31.9355 31.4032 31.9355Z" fill="black"/>
<path d="M14.3701 2.12891H21.2895V3.19342H14.3701V2.12891Z" fill="black"/>
<path d="M26.2334 2.50781L26.986 1.7552L29.6469 4.41606L28.8943 5.16868L26.2334 2.50781Z" fill="black"/>
<path d="M11.71 8.51562H12.7745V9.58014H11.71V8.51562Z" fill="black"/>
<path d="M13.8398 8.51562H14.9044V9.58014H13.8398V8.51562Z" fill="black"/>
<path d="M15.9678 8.51562H17.0323V9.58014H15.9678V8.51562Z" fill="black"/>
<path d="M20.2256 8.51562H23.4191V9.58014H20.2256V8.51562Z" fill="black"/>
<path d="M24.4844 8.5166H28.7424V9.58112H24.4844V8.5166Z" fill="black"/>
</svg>
