<svg width="35" height="33" viewBox="0 0 35 33" fill="none" xmlns="http://www.w3.org/2000/svg">
<path d="M31.5264 19.6437V16.9304C31.5264 14.0192 29.1583 11.6509 26.2472 11.6509C25.6871 11.6509 25.1328 11.7398 24.6016 11.9139C20.0603 13.3894 19.7074 13.3894 15.1673 11.9146C14.6345 11.7398 14.0802 11.6509 13.5201 11.6509C13.4036 11.6509 13.2826 11.6551 13.1597 11.663C12.8387 11.6843 12.5954 11.9616 12.6166 12.2826C12.6376 12.6036 12.9155 12.8469 13.2359 12.8257C13.3333 12.8193 13.4291 12.816 13.5201 12.816C13.9567 12.816 14.3888 12.8851 14.8057 13.022C19.5991 14.579 20.1683 14.579 24.9632 13.0217C25.3786 12.8851 25.8106 12.816 26.2472 12.816C28.5157 12.816 30.3613 14.6615 30.3613 16.9304V19.6006C29.5364 19.6925 28.7679 20.0439 28.1474 20.6231C27.361 21.3573 26.9098 22.3949 26.9098 23.4702V25.0561H12.8575V23.4702C12.8575 22.3949 12.4064 21.3573 11.6199 20.6231C10.9992 20.0439 10.2313 19.6922 9.40603 19.6006V16.9304C9.40603 15.5177 10.1184 14.2201 11.3117 13.4586C11.5829 13.2856 11.6624 12.9252 11.4892 12.6542C11.3162 12.383 10.9561 12.3032 10.6849 12.4764C9.15451 13.4528 8.24097 15.1179 8.24097 16.9301V19.6434C6.52858 19.9659 5.20241 21.4219 5.07984 23.1947C5.07377 23.2815 5.07074 23.3679 5.07044 23.4538V23.4702C5.07044 24.4213 5.41328 25.2939 5.98215 25.9711C6.34047 26.3992 6.79193 26.7527 7.31439 26.9969V28.145C6.97124 27.9168 6.55953 27.7836 6.11717 27.7836H4.72456V3.9609C4.72456 2.41932 5.97882 1.16506 7.5207 1.16506C9.06228 1.16506 10.3165 2.41932 10.3165 3.9609V3.99791C8.82563 4.27279 7.69243 5.58227 7.69243 7.15146V9.1445C7.69243 9.57928 8.04619 9.93304 8.48096 9.93304H13.3175C13.7523 9.93304 14.1057 9.57928 14.1057 9.1445V7.15146C14.1057 5.58227 12.9728 4.27279 11.4816 3.99791V3.9609C11.4816 1.77702 9.70488 0 7.5207 0C5.33652 0 3.5595 1.77702 3.5595 3.9609V27.7836H2.16719C0.9724 27.7836 0 28.756 0 29.9508V30.4909C0 30.9005 0.333134 31.2336 0.742422 31.2336H7.31439V31.412C7.31439 32.2876 8.02677 33 8.90208 33H30.8653C31.7409 33 32.4533 32.2876 32.4533 31.412V26.9978C32.5504 26.9523 32.6459 26.9029 32.7394 26.8492C32.7521 26.8419 32.7646 26.834 32.7767 26.8261C33.2995 26.5175 33.7491 26.0882 34.0804 25.5731C34.2546 25.3024 34.1763 24.942 33.9057 24.7681C33.6353 24.594 33.2746 24.6723 33.1007 24.9429C32.7673 25.4611 32.264 25.8555 31.6829 26.053C31.6754 26.0558 31.6681 26.0582 31.6608 26.0612C31.3859 26.1519 31.0962 26.1987 30.8034 26.1987C30.422 26.1987 30.0534 26.1219 29.7075 25.9699C29.4129 25.8407 29.0694 25.9745 28.9399 26.2691C28.8106 26.5637 28.9444 26.9074 29.239 27.0367C29.7336 27.2539 30.26 27.3637 30.8034 27.3637C30.966 27.3637 31.1277 27.3537 31.2882 27.3334V31.4117C31.2882 31.645 31.0983 31.8346 30.8653 31.8346H28.0749V23.4702C28.0749 22.7056 28.3828 21.9972 28.9423 21.475C29.4748 20.9777 30.1638 20.7205 30.8914 20.7432C30.9087 20.7447 30.9263 20.7456 30.9439 20.7456C30.9451 20.7456 30.9463 20.7456 30.9475 20.7453C30.9645 20.7462 30.9815 20.7472 30.9988 20.7484C32.2676 20.8361 33.3213 21.8148 33.5039 23.0758C33.5501 23.394 33.8459 23.6149 34.1642 23.5688C34.4824 23.5227 34.7033 23.2272 34.6569 22.9086C34.4181 21.2593 33.1344 19.948 31.5264 19.6437ZM12.9407 7.15146V8.76798H8.85748V7.15146C8.85748 6.02584 9.77345 5.10988 10.8991 5.10988C12.0247 5.10988 12.9407 6.02584 12.9407 7.15146ZM7.1193 30.0685H1.16506V29.9508C1.16506 29.3983 1.6147 28.9487 2.16719 28.9487H6.11717C6.66966 28.9487 7.1193 29.3983 7.1193 29.9508V30.0685ZM8.47914 31.412V27.334C8.63813 27.3537 8.79984 27.364 8.96398 27.364C9.50767 27.364 10.0338 27.2539 10.5283 27.037C10.8229 26.9074 10.9567 26.564 10.8275 26.2694C10.6979 25.9748 10.3545 25.8407 10.0599 25.9699C9.71399 26.1219 9.34535 26.199 8.96398 26.199C8.66209 26.199 8.37144 26.1495 8.09959 26.0588C8.09474 26.0567 8.08958 26.0549 8.08442 26.0533C8.00614 26.0266 7.92999 25.9966 7.85535 25.9635C7.5204 25.814 7.22064 25.5985 6.97306 25.3343C6.4676 24.7927 6.18847 24.0527 6.24217 23.2751C6.33531 21.9277 7.42149 20.8415 8.76889 20.7484C8.78588 20.7472 8.80287 20.7462 8.81956 20.7453H8.8235C8.8414 20.7453 8.859 20.7447 8.8766 20.7429C9.60415 20.7202 10.2926 20.978 10.825 21.475C11.3845 21.9969 11.6925 22.7056 11.6925 23.4702V31.8346H8.90208C8.66907 31.8349 8.47914 31.645 8.47914 31.412ZM12.8575 26.2211H26.9098V31.8349H12.8575V26.2211Z" fill="black"/>
<path d="M15.8918 18.1367C15.5702 18.1367 15.3093 18.3973 15.3093 18.7192V18.9978H15.0308C14.7092 18.9978 14.4482 19.2584 14.4482 19.5803C14.4482 19.9019 14.7092 20.1628 15.0308 20.1628H15.3093V20.4414C15.3093 20.763 15.5702 21.0239 15.8918 21.0239C16.2134 21.0239 16.4744 20.763 16.4744 20.4414V20.1628H16.7529C17.0745 20.1628 17.3354 19.9019 17.3354 19.5803C17.3354 19.2584 17.0745 18.9978 16.7529 18.9978H16.4744V18.7192C16.4744 18.3973 16.2134 18.1367 15.8918 18.1367Z" fill="black"/>
<path d="M23.8762 18.1362C23.5546 18.1362 23.2937 18.3969 23.2937 18.7188V18.9973H23.0151C22.6935 18.9973 22.4326 19.2579 22.4326 19.5798C22.4326 19.9014 22.6935 20.1623 23.0151 20.1623H23.2937V20.4409C23.2937 20.7625 23.5546 21.0234 23.8762 21.0234C24.1978 21.0234 24.4587 20.7625 24.4587 20.4409V20.1623H24.7372C25.0589 20.1623 25.3198 19.9014 25.3198 19.5798C25.3198 19.2579 25.0589 18.9973 24.7372 18.9973H24.4587V18.7188C24.4587 18.3969 24.1978 18.1362 23.8762 18.1362Z" fill="black"/>
<path d="M32.2456 0.518066H25.5723C24.5729 0.518066 23.7598 1.33118 23.7598 2.33089V9.00419C23.7598 10.0039 24.5729 10.817 25.5723 10.817H32.2456C33.2453 10.817 34.0584 10.0039 34.0584 9.00419V2.33089C34.0584 1.33118 33.2453 0.518066 32.2456 0.518066ZM25.5723 9.65195C25.2152 9.65195 24.9248 9.36129 24.9248 9.00419V6.93712C25.0969 6.92013 25.2689 6.91163 25.4391 6.91163C27.3866 6.91163 29.1612 7.98446 30.0842 9.65195H25.5723ZM32.8933 9.00419C32.8933 9.36129 32.6027 9.65195 32.2456 9.65195H31.3806C30.3639 7.29968 28.0268 5.74657 25.4391 5.74657C25.2686 5.74657 25.0965 5.75355 24.9248 5.76751V2.33089C24.9248 1.97378 25.2152 1.68313 25.5723 1.68313H32.2456C32.6027 1.68313 32.8933 1.97378 32.8933 2.33089V9.00419Z" fill="black"/>
<path d="M30.5468 2.14453C29.6153 2.14453 28.8574 2.90243 28.8574 3.83387C28.8574 4.76561 29.6153 5.52351 30.5468 5.52351C31.4785 5.52351 32.2364 4.76561 32.2364 3.83387C32.2364 2.90243 31.4785 2.14453 30.5468 2.14453ZM30.5468 4.35845C30.2576 4.35845 30.0225 4.12331 30.0225 3.83417C30.0225 3.54503 30.2576 3.30959 30.5468 3.30959C30.8359 3.30959 31.0713 3.54503 31.0713 3.83417C31.0713 4.12331 30.8359 4.35845 30.5468 4.35845Z" fill="black"/>
</svg>
