<svg width="120" height="106" viewBox="0 0 120 106" fill="none" xmlns="http://www.w3.org/2000/svg">
<path d="M33.2735 1.17727L5.8168 21.6187C4.01157 22.9611 2.54537 24.7071 1.53537 26.7172C0.525371 28.7274 -0.000426358 30.9459 2.59401e-07 33.1955V59.9962C1.37928e-07 61.8913 0.373371 63.768 1.09879 65.5188C1.8242 67.2697 2.88745 68.8605 4.22779 70.2004C5.56813 71.5402 7.15931 72.6029 8.91043 73.3277C10.6616 74.0525 12.5383 74.4252 14.4335 74.4245V88.4706C14.4333 89.0572 14.607 89.6307 14.9328 90.1186C15.2586 90.6065 15.7218 90.9867 16.2638 91.2113C16.8058 91.4358 17.4022 91.4945 17.9776 91.38C18.5529 91.2655 19.0814 90.9829 19.4961 90.5679L35.6447 74.4245H59.2476C61.1428 74.4252 63.0196 74.0525 64.7707 73.3277C66.5218 72.6029 68.113 71.5402 69.4534 70.2004C70.7937 68.8605 71.857 67.2697 72.5824 65.5188C73.3078 63.768 73.6812 61.8913 73.6812 59.9962V33.1955C73.6818 30.9464 73.1566 28.7283 72.1475 26.7182C71.1385 24.7082 69.6735 22.9619 67.8695 21.6187L40.3973 1.17727C39.3671 0.412763 38.1183 0 36.8354 0C35.5525 0 34.3037 0.412763 33.2735 1.17727Z" fill="#FF2C2C"/>
<path d="M86.5755 15.1979L114.032 35.6445C115.837 36.9864 117.303 38.7315 118.313 40.7407C119.322 42.7499 119.849 44.9674 119.849 47.2161V74.0168C119.848 77.8439 118.326 81.5138 115.62 84.2195C112.913 86.9252 109.243 88.4451 105.416 88.4451V102.491C105.416 103.078 105.242 103.651 104.916 104.139C104.59 104.627 104.127 105.007 103.585 105.232C103.043 105.456 102.447 105.515 101.871 105.401C101.296 105.286 100.768 105.004 100.353 104.589L84.2044 88.4451H60.6117C56.7846 88.4451 53.1142 86.9252 50.4075 84.2195C47.7009 81.5138 46.1796 77.8439 46.1782 74.0168V47.2161C46.1784 44.9679 46.704 42.7508 47.713 40.7417C48.722 38.7327 50.1866 36.9872 51.9899 35.6445L79.4518 15.1979C80.4819 14.4334 81.7308 14.0206 83.0136 14.0206C84.2965 14.0206 85.5453 14.4334 86.5755 15.1979Z" fill="#1AA8FF"/>
<path d="M73.6711 59.995V33.1944C73.6685 31.2516 73.2732 29.3293 72.5088 27.5432C71.7445 25.757 70.6269 24.1439 69.2233 22.8006L51.9899 35.643C50.1866 36.9857 48.722 38.7312 47.713 40.7402C46.704 42.7493 46.1784 44.9664 46.1782 47.2146V74.0153C46.1782 74.1496 46.1782 74.2891 46.1782 74.4234H59.2169C61.1139 74.4268 62.9929 74.0561 64.7464 73.3325C66.4999 72.609 68.0935 71.5467 69.436 70.2066C70.7786 68.8664 71.8437 67.2747 72.5704 65.5225C73.2971 63.7703 73.6711 61.892 73.6711 59.995Z" fill="#622690"/>
</svg>
