<svg width="23" height="20" viewBox="0 0 23 20" fill="none" xmlns="http://www.w3.org/2000/svg">
<path d="M6.31031 0.223269L1.10315 4.09998C0.760793 4.35456 0.482729 4.68569 0.291183 5.06691C0.0996363 5.44813 -8.08586e-05 5.86887 4.91953e-08 6.29551V11.3782C2.6158e-08 11.7377 0.0708097 12.0936 0.208384 12.4256C0.345959 12.7577 0.547603 13.0594 0.801798 13.3135C1.05599 13.5676 1.35776 13.7691 1.68986 13.9066C2.02196 14.044 2.37789 14.1147 2.73731 14.1146V16.7784C2.73726 16.8897 2.77022 16.9984 2.83201 17.0909C2.89379 17.1835 2.98164 17.2556 3.08443 17.2982C3.18721 17.3407 3.30032 17.3519 3.40944 17.3302C3.51855 17.3084 3.61878 17.2549 3.69742 17.1762L6.75999 14.1146H11.2363C11.5957 14.1147 11.9516 14.044 12.2837 13.9066C12.6158 13.7691 12.9176 13.5676 13.1718 13.3135C13.426 13.0594 13.6276 12.7577 13.7652 12.4256C13.9028 12.0936 13.9736 11.7377 13.9736 11.3782V6.29551C13.9737 5.86897 13.8741 5.4483 13.6827 5.0671C13.4914 4.6859 13.2135 4.35471 12.8714 4.09998L7.66133 0.223269C7.46595 0.0782803 7.22911 0 6.98582 0C6.74252 0 6.50568 0.0782803 6.31031 0.223269Z" fill="#FF2C2C"/>
<path d="M16.4184 2.88343L21.6256 6.76112C21.9678 7.01559 22.2458 7.34657 22.4373 7.72761C22.6289 8.10864 22.7286 8.52919 22.7287 8.95566V14.0384C22.7285 14.7642 22.4399 15.4602 21.9266 15.9733C21.4133 16.4865 20.7172 16.7747 19.9914 16.7747V19.4386C19.9915 19.5498 19.9585 19.6586 19.8967 19.7511C19.8349 19.8436 19.7471 19.9157 19.6443 19.9583C19.5415 20.0009 19.4284 20.012 19.3193 19.9903C19.2102 19.9686 19.1099 19.915 19.0313 19.8363L15.9687 16.7747H11.4944C10.7686 16.7747 10.0725 16.4865 9.55917 15.9733C9.04585 15.4602 8.75734 14.7642 8.75708 14.0384V8.95566C8.75712 8.52929 8.85679 8.10882 9.04815 7.7278C9.23951 7.34678 9.51726 7.01575 9.85925 6.76112L15.0674 2.88343C15.2628 2.73844 15.4996 2.66016 15.7429 2.66016C15.9862 2.66016 16.223 2.73844 16.4184 2.88343Z" fill="#1AA8FF"/>
<path d="M13.9711 11.3781V6.29539C13.9706 5.92694 13.8956 5.56239 13.7507 5.22365C13.6057 4.88491 13.3938 4.57897 13.1276 4.32422L9.85925 6.75978C9.51726 7.01441 9.23951 7.34544 9.04815 7.72646C8.85679 8.10748 8.75712 8.52795 8.75708 8.95433V14.0371C8.75708 14.0625 8.75708 14.089 8.75708 14.1145H11.2299C11.5896 14.1151 11.946 14.0448 12.2785 13.9076C12.6111 13.7703 12.9133 13.5689 13.1679 13.3147C13.4225 13.0606 13.6245 12.7587 13.7623 12.4264C13.9002 12.0941 13.9711 11.7379 13.9711 11.3781Z" fill="#622690"/>
</svg>
