<svg width="33" height="33" viewBox="0 0 33 33" fill="none" xmlns="http://www.w3.org/2000/svg">
<path d="M8.21777 2.03027H5.63965C2.53004 2.03027 0 4.56031 0 7.66992V28.9395C0 30.2723 1.08412 31.3564 2.41699 31.3564H11.4404C12.7733 31.3564 13.8574 30.2723 13.8574 28.9395V7.66992C13.8574 4.56031 11.3274 2.03027 8.21777 2.03027ZM5.11118 3.02779C4.82165 5.16481 3.13454 6.85192 0.997513 7.14146C1.24123 4.98631 2.95603 3.2715 5.11118 3.02779ZM0.966797 15.6621C0.966797 14.7809 1.15915 13.9438 1.50382 13.1905L2.77476 14.9989C2.64988 15.213 2.57812 15.4614 2.57812 15.7266V22.8164C2.57812 23.037 2.62798 23.2462 2.71635 23.4335L1.24123 25.533C1.06876 25.2943 0.966797 25.0018 0.966797 24.6855V15.6621ZM4.02832 24.2666H9.8291C10.0502 24.2666 10.2596 24.2168 10.4472 24.1279L11.8221 26.0844C11.7005 26.1176 11.5726 26.1357 11.4404 26.1357H2.41699C2.28481 26.1357 2.15691 26.1176 2.03531 26.0844L3.41022 24.1279C3.59779 24.2168 3.80727 24.2666 4.02832 24.2666ZM3.54492 22.8164V15.7266C3.54492 15.4599 3.7617 15.2432 4.02832 15.2432H9.8291C10.0957 15.2432 10.3125 15.4599 10.3125 15.7266V22.8164C10.3125 23.083 10.0957 23.2998 9.8291 23.2998H4.02832C3.7617 23.2998 3.54492 23.083 3.54492 22.8164ZM10.3427 14.3705C10.1828 14.3099 10.0099 14.2764 9.8291 14.2764H4.02832C3.84755 14.2764 3.67458 14.3099 3.51471 14.3705L2.0338 12.263C3.11163 10.7151 4.90372 9.7002 6.92871 9.7002C8.9537 9.7002 10.7458 10.7151 11.8236 12.263L10.3427 14.3705ZM12.8906 28.9395C12.8906 29.7391 12.2401 30.3896 11.4404 30.3896H2.41699C1.61737 30.3896 0.966797 29.7391 0.966797 28.9395V26.6179C1.37114 26.922 1.87317 27.1025 2.41699 27.1025H11.4404C11.9843 27.1025 12.4863 26.922 12.8906 26.6179V28.9395ZM12.8906 24.6855C12.8906 25.0018 12.7887 25.2943 12.6162 25.5328L11.1411 23.4335C11.2294 23.2462 11.2793 23.037 11.2793 22.8164V15.7266C11.2793 15.4614 11.2075 15.213 11.0827 14.9989L12.3536 13.1905C12.6983 13.9438 12.8906 14.7809 12.8906 15.6621V24.6855ZM12.8906 12.1358C11.6824 10.1008 9.46227 8.7334 6.92871 8.7334C4.39515 8.7334 2.17504 10.1008 0.966797 12.1358V8.11832C3.66351 7.8298 5.79952 5.69378 6.0883 2.99707H7.96223C8.09944 4.27077 8.65384 5.4619 9.55266 6.39118C10.4517 7.32097 11.6237 7.91489 12.8906 8.09415V12.1358ZM8.94438 3.05397C10.995 3.37548 12.6064 5.03565 12.8559 7.10898C10.8339 6.74341 9.23845 5.08928 8.94438 3.05397Z" fill="black"/>
<path d="M27.3604 2.03027H24.7822C21.6726 2.03027 19.1426 4.56031 19.1426 7.66992V28.9395C19.1426 30.2723 20.2267 31.3564 21.5596 31.3564H30.583C31.9159 31.3564 33 30.2723 33 28.9395V7.66992C33 4.56031 30.47 2.03027 27.3604 2.03027ZM31.9985 7.10898C29.9765 6.74341 28.381 5.08928 28.087 3.05397C30.1376 3.37548 31.749 5.03565 31.9985 7.10898ZM24.2538 3.02779C23.9642 5.16481 22.2771 6.85192 20.1401 7.14146C20.3838 4.98631 22.0986 3.2715 24.2538 3.02779ZM20.1094 15.6621C20.1094 14.7809 20.3017 13.9438 20.6464 13.1905L21.9173 14.9989C21.7925 15.213 21.7207 15.4614 21.7207 15.7266V22.8164C21.7207 23.037 21.7706 23.2462 21.8589 23.4335L20.3838 25.533C20.2113 25.2943 20.1094 25.0018 20.1094 24.6855V15.6621ZM23.1709 24.2666H28.9717C29.1927 24.2666 29.4022 24.2168 29.5898 24.1279L30.9647 26.0844C30.8431 26.1176 30.7152 26.1357 30.583 26.1357H21.5596C21.4274 26.1357 21.2995 26.1176 21.1779 26.0844L22.5528 24.1279C22.7404 24.2168 22.9498 24.2666 23.1709 24.2666ZM22.6875 22.8164V15.7266C22.6875 15.4599 22.9043 15.2432 23.1709 15.2432H28.9717C29.2383 15.2432 29.4551 15.4599 29.4551 15.7266V22.8164C29.4551 23.083 29.2383 23.2998 28.9717 23.2998H23.1709C22.9043 23.2998 22.6875 23.083 22.6875 22.8164ZM29.4853 14.3705C29.3254 14.3099 29.1525 14.2764 28.9717 14.2764H23.1709C22.9901 14.2764 22.8172 14.3099 22.6573 14.3705L21.1764 12.263C22.2542 10.7151 24.0463 9.7002 26.0713 9.7002C28.0963 9.7002 29.8884 10.7151 30.9662 12.263L29.4853 14.3705ZM32.0332 28.9395C32.0332 29.7391 31.3826 30.3896 30.583 30.3896H21.5596C20.7599 30.3896 20.1094 29.7391 20.1094 28.9395V26.6179C20.5137 26.922 21.0157 27.1025 21.5596 27.1025H30.583C31.1268 27.1025 31.6289 26.922 32.0332 26.6179V28.9395ZM32.0332 24.6855C32.0332 25.0018 31.9312 25.2943 31.7588 25.5328L30.2837 23.4335C30.372 23.2462 30.4219 23.037 30.4219 22.8164V15.7266C30.4219 15.4614 30.3501 15.213 30.2252 14.9989L31.4962 13.1905C31.8409 13.9438 32.0332 14.7809 32.0332 15.6621V24.6855ZM32.0332 12.1358C30.825 10.1008 28.6049 8.7334 26.0713 8.7334C23.5377 8.7334 21.3176 10.1008 20.1094 12.1358V8.11832C22.8061 7.8298 24.9421 5.69378 25.2309 2.99707H27.1048C27.242 4.27077 27.7964 5.4619 28.6952 6.39118C29.5943 7.32097 30.7663 7.91489 32.0332 8.09415V12.1358Z" fill="black"/>
<path d="M16.0488 32.0332H17.0156V33H16.0488V32.0332Z" fill="black"/>
<path d="M16.0488 1.93359H17.0156V31.0664H16.0488V1.93359Z" fill="black"/>
<path d="M16.0488 0H17.0156V0.966797H16.0488V0Z" fill="black"/>
<path d="M1.90137 28.4561H2.86816V29.4229H1.90137V28.4561Z" fill="black"/>
<path d="M10.9893 28.4561H11.9561V29.4229H10.9893V28.4561Z" fill="black"/>
<path d="M21.1729 28.4561H22.1396V29.4229H21.1729V28.4561Z" fill="black"/>
<path d="M30.2607 28.4561H31.2275V29.4229H30.2607V28.4561Z" fill="black"/>
</svg>
