<svg width="42" height="34" viewBox="0 0 42 34" fill="none" xmlns="http://www.w3.org/2000/svg">
<path d="M41.4661 23.06C41.187 22.8707 40.8064 22.9438 40.616 23.2223C40.5648 23.2973 39.3331 25.0604 37.0714 25.0604C34.8097 25.0604 33.5781 23.2973 33.5281 23.2243C33.3028 22.8673 32.7361 22.8678 32.511 23.2248C32.4987 23.2431 31.2531 25.0605 28.9711 25.0605C27.0584 25.0605 25.8826 23.7998 25.5349 23.3664V13.8743H41.123C41.4613 13.8743 41.7355 13.6 41.7355 13.2617C41.7355 12.9233 41.4613 12.6491 41.123 12.6491H36.1969V8.18455C36.1969 4.13426 32.9409 0.807654 28.9387 0.768935C26.9697 0.749127 25.1129 1.50411 23.7109 2.89255C23.0321 3.5648 22.5024 4.34555 22.1351 5.19485C21.0027 2.6163 18.4563 0.797546 15.5033 0.768935C15.479 0.76869 15.4547 0.768609 15.4304 0.768609C13.4883 0.768609 11.6601 1.52123 10.2754 2.89255C8.87322 4.28131 8.10087 6.13031 8.10087 8.09888V12.6492H0.659082C0.320716 12.6492 0.0465007 12.9234 0.0465007 13.2618C0.0465007 13.6001 0.320716 13.8743 0.659082 13.8743H8.10087V16.2934C8.10087 16.6317 8.37508 16.906 8.71345 16.906C9.05182 16.906 9.32603 16.6317 9.32603 16.2934V8.09888C9.32603 6.45971 9.96934 4.9199 11.1376 3.76296C12.3055 2.60643 13.8504 1.97453 15.4915 1.99402C18.8246 2.02621 21.5363 4.80333 21.5363 8.18455V12.6491H19.988V8.09888C19.988 5.62899 17.9793 3.5851 15.5104 3.54279C15.4843 3.54238 15.4585 3.54214 15.4325 3.54214C14.2502 3.54214 13.13 4.00457 12.2707 4.84931C11.3833 5.72159 10.8744 6.93151 10.8744 8.16882V24.6096C10.0578 24.1995 9.53438 23.6205 9.32595 23.3594V18.7435C9.32595 18.4052 9.05173 18.131 8.71337 18.131C8.375 18.131 8.10079 18.4052 8.10079 18.7435V23.3656C7.7519 23.8006 6.5763 25.0604 4.6643 25.0604C2.40251 25.0604 1.17099 23.2973 1.12094 23.2243C0.932156 22.9436 0.551565 22.8691 0.270829 23.0578C-0.00990728 23.2465 -0.0844931 23.6271 0.104295 23.9079C0.169506 24.005 1.73654 26.2856 4.66422 26.2856C6.6658 26.2856 8.03133 25.2197 8.71581 24.5143C9.40029 25.2197 10.7659 26.2856 12.7674 26.2856C14.7685 26.2856 16.1325 25.2203 16.8164 24.5146C17.501 25.2201 18.8665 26.2856 20.8676 26.2856C22.8692 26.2856 24.2347 25.2197 24.9192 24.5143C25.6037 25.2197 26.9693 26.2856 28.9708 26.2856C30.9719 26.2856 32.3359 25.2203 33.0198 24.5146C33.7044 25.2201 35.0699 26.2856 37.071 26.2856C39.9987 26.2856 41.5657 24.005 41.6309 23.9079C41.8195 23.6279 41.7452 23.2494 41.4661 23.06ZM12.0996 18.131H21.5363V19.8461H12.0996V18.131ZM21.5363 16.9059H12.0996V13.8743H21.5363V16.9059ZM13.1296 5.72306C13.7716 5.09197 14.6094 4.75279 15.4893 4.76779C17.2944 4.79877 18.7629 6.29309 18.7629 8.09896V12.6493H12.0996V8.1689C12.0996 7.2579 12.475 6.36645 13.1296 5.72306ZM17.3246 23.2243C17.0995 22.8693 16.5356 22.8691 16.3089 23.2228C16.2577 23.2978 15.0289 25.0604 12.7677 25.0604C12.5336 25.0604 12.3113 25.0407 12.0996 25.0068V21.0712H21.5363V25.0067C21.3245 25.0406 21.102 25.0604 20.8678 25.0604C18.6061 25.0604 17.3745 23.2973 17.3246 23.2243ZM22.7614 24.6094V8.09888C22.7614 6.45971 23.4047 4.9199 24.573 3.76296C25.7409 2.60643 27.286 1.97453 28.9268 1.99402C32.26 2.02621 34.9717 4.80333 34.9717 8.18455V12.6491H33.4233V11.2874C33.4233 10.949 33.1491 10.6748 32.8108 10.6748C32.4724 10.6748 32.1982 10.949 32.1982 11.2874V12.6491H25.5349V8.16874C25.5349 7.25781 25.9103 6.36637 26.5649 5.7229C27.2069 5.09181 28.0431 4.75263 28.9246 4.76763C30.7297 4.7986 32.1982 6.29293 32.1982 8.0988V8.83716C32.1982 9.17552 32.4724 9.44974 32.8108 9.44974C33.1491 9.44974 33.4233 9.17552 33.4233 8.83716V8.0988C33.4233 5.62891 31.4147 3.58502 28.9458 3.54271C28.9197 3.5423 28.8939 3.54206 28.8679 3.54206C27.6856 3.54206 26.5655 4.00449 25.706 4.84922C24.8188 5.72151 24.3098 6.93143 24.3098 8.16874V23.3586C24.1008 23.6208 23.5774 24.1995 22.7614 24.6094Z" fill="black"/>
<path d="M16.8193 32.5424C14.5575 32.5424 13.326 30.7794 13.276 30.7063C13.0511 30.3515 12.4876 30.3512 12.2606 30.7044C12.2094 30.7794 10.9778 32.5425 8.71605 32.5425C6.45435 32.5425 5.22275 30.7794 5.1727 30.7064C4.98391 30.4256 4.60332 30.3511 4.32259 30.5399C4.04185 30.7286 3.96726 31.1092 4.15605 31.3899C4.22126 31.487 5.78822 33.7676 8.71597 33.7676C10.7176 33.7676 12.0831 32.7017 12.7676 31.9963C13.452 32.7017 14.8177 33.7676 16.8192 33.7676C17.1576 33.7676 17.4318 33.4934 17.4318 33.155C17.4318 32.8166 17.1577 32.5424 16.8193 32.5424Z" fill="black"/>
<path d="M37.414 30.5424C37.1347 30.3534 36.7543 30.4269 36.5641 30.7055C36.5129 30.7805 35.2842 32.5431 33.0228 32.5431C30.761 32.5431 29.5295 30.78 29.4795 30.707C29.2543 30.3503 28.688 30.3504 28.4628 30.707C28.4504 30.7253 27.2019 32.5431 24.9195 32.5431C22.6577 32.5431 21.4262 30.78 21.3761 30.707C21.1511 30.352 20.5871 30.3518 20.3604 30.7055C20.3556 30.7126 19.8612 31.4278 18.9493 31.96C18.6572 32.1306 18.5586 32.5057 18.7292 32.7978C18.8998 33.0899 19.2748 33.1885 19.5671 33.0181C20.1298 32.6896 20.5649 32.3078 20.8674 31.9964C21.5517 32.7018 22.9174 33.7683 24.9195 33.7683C26.9211 33.7683 28.2866 32.7024 28.9711 31.997C29.6555 32.7024 31.0212 33.7683 33.0227 33.7683C35.9508 33.7683 37.5148 31.4872 37.58 31.3901C37.7681 31.1098 37.6934 30.7315 37.414 30.5424Z" fill="black"/>
</svg>
