<svg width="36" height="37" viewBox="0 0 36 37" fill="none" xmlns="http://www.w3.org/2000/svg">
<path d="M35.8734 7.67916C35.8734 13.053 33.5306 16.9571 33.4321 17.1199C33.2337 17.4442 32.8902 17.6221 32.5358 17.6221C32.3497 17.6221 32.1622 17.5728 31.9925 17.4702C31.4972 17.1692 31.3384 16.5246 31.6381 16.0293C31.66 15.9937 33.7742 12.4399 33.7742 7.67916C33.7742 4.96422 32.0089 2.99369 29.5759 2.99369C27.2605 2.99369 25.3776 4.87664 25.3776 7.19337C25.3776 8.18 25.8552 10.687 26.0385 11.5696C26.1576 12.1375 25.7922 12.6931 25.2243 12.8121C24.6564 12.9284 24.1008 12.5658 23.9832 11.9993C23.9106 11.6531 23.2757 8.57548 23.2757 7.19337C23.2757 3.72032 26.1015 0.894531 29.5759 0.894531C33.1653 0.894531 35.8734 3.81064 35.8734 7.67916ZM29.7538 9.33085C30.1712 12.819 30.776 19.6159 30.0808 20.3083L14.8284 35.5621C13.8911 36.5008 12.368 36.5008 11.4293 35.5607L1.23042 25.3633C0.291683 24.4259 0.291683 22.9028 1.23042 21.9641L16.4842 6.71169C16.7264 6.46948 19.3647 6.45853 22.3315 6.61316C22.3151 6.80885 22.2726 6.99358 22.2726 7.19337C22.2726 7.95422 22.4409 9.13379 22.6175 10.1711C22.3068 10.6322 22.1248 11.1864 22.1248 11.7844C22.1248 13.3773 23.4166 14.6691 25.0095 14.6691C26.6023 14.6691 27.8941 13.3773 27.8941 11.7844C27.8941 10.8033 27.4028 9.93843 26.6543 9.41843C26.5011 8.50569 26.3779 7.62443 26.3779 7.19337C26.3779 7.10032 26.3971 7.01411 26.4053 6.92243C26.7706 6.96074 27.1305 7.00043 27.4713 7.04285C29.4869 7.29053 29.5075 7.28643 29.7538 9.33085ZM21.624 20.7462C21.3873 20.088 20.9932 19.2984 20.1379 18.3898L21.2956 17.2307L20.0065 15.9431L18.7572 17.1938C17.0849 16.0484 15.3607 16.1415 14.1907 17.3115C12.9154 18.5868 13.2164 20.2057 14.1524 22.0873C14.7956 23.39 14.9133 24.1399 14.4138 24.6394C13.9006 25.1525 13.0727 24.9295 12.3215 24.1796C11.4676 23.3257 10.9667 22.2706 10.7177 21.4154L8.78274 22.5621C9.00716 23.3366 9.612 24.441 10.4659 25.3496L9.20421 26.6126L10.4919 27.9017L11.848 26.547C13.6365 27.8086 15.4401 27.6389 16.6101 26.469C17.8075 25.2688 17.9128 23.9278 16.8865 21.7972C16.1749 20.27 16.0039 19.5201 16.4254 19.1C16.7948 18.7305 17.4517 18.6252 18.3069 19.4804C19.2553 20.4287 19.57 21.3497 19.7411 21.8368L21.624 20.7462Z" fill="#28B446"/>
</svg>
