<svg width="68" height="68" viewBox="0 0 68 68" fill="none" xmlns="http://www.w3.org/2000/svg">
<path d="M62.9965 30.7683L35.6182 5.82134C34.4165 4.72618 32.6044 4.7263 31.4031 5.82122L4.02473 30.7684C3.0621 31.6456 2.74412 32.9971 3.21441 34.2115C3.68483 35.4258 4.83016 36.2104 6.13247 36.2104H10.5053V61.2054C10.5053 62.1964 11.3088 62.9999 12.2998 62.9999H27.3065C28.2975 62.9999 29.101 62.1965 29.101 61.2054V46.0292H37.9207V61.2055C37.9207 62.1965 38.7242 63 39.7152 63H54.7212C55.7122 63 56.5157 62.1966 56.5157 61.2055V36.2104H60.8893C62.1915 36.2104 63.337 35.4257 63.8074 34.2115C64.2771 32.997 63.9591 31.6456 62.9965 30.7683Z" fill="#1AA8FF"/>
<path d="M56.0468 8.58212H43.9952L57.8413 21.172V10.3765C57.8413 9.38553 57.0379 8.58212 56.0468 8.58212Z" fill="#1AA8FF"/>
</svg>
