<svg width="68" height="68" viewBox="0 0 68 68" fill="none" xmlns="http://www.w3.org/2000/svg">
<path d="M33.8287 32.9387C37.6669 32.9387 40.9905 31.562 43.7062 28.846C46.4218 26.1303 47.7984 22.8076 47.7984 18.9689C47.7984 15.1315 46.4218 11.8083 43.7057 9.09181C40.9897 6.37662 37.6665 5 33.8287 5C29.99 5 26.6672 6.37662 23.9516 9.09225C21.236 11.8079 19.8589 15.1311 19.8589 18.9689C19.8589 22.8076 21.236 26.1308 23.952 28.8464C26.6681 31.5616 29.9913 32.9387 33.8287 32.9387V32.9387Z" fill="#1AA8FF"/>
<path d="M58.272 49.5986C58.1937 48.4685 58.0353 47.2357 57.8021 45.9338C57.5667 44.6222 57.2636 43.3824 56.9007 42.2491C56.5259 41.0778 56.0162 39.9211 55.3861 38.8126C54.732 37.6621 53.9639 36.6603 53.1019 35.8359C52.2005 34.9735 51.0969 34.2801 49.8207 33.7743C48.549 33.2712 47.1396 33.0163 45.632 33.0163C45.0399 33.0163 44.4673 33.2592 43.3615 33.9792C42.6809 34.423 41.8849 34.9363 40.9963 35.5041C40.2366 35.9882 39.2073 36.4417 37.936 36.8524C36.6957 37.2537 35.4363 37.4573 34.1933 37.4573C32.9503 37.4573 31.6914 37.2537 30.4498 36.8524C29.1798 36.4422 28.1505 35.9886 27.3916 35.5045C26.5115 34.9421 25.715 34.4288 25.0243 33.9788C23.9198 33.2588 23.3467 33.0159 22.7547 33.0159C21.2466 33.0159 19.8377 33.2712 18.5664 33.7748C17.2911 34.2797 16.1871 34.9731 15.2848 35.8364C14.4232 36.6612 13.6546 37.6626 13.0015 38.8126C12.3718 39.9211 11.862 41.0774 11.4868 42.2495C11.1244 43.3828 10.8213 44.6222 10.5859 45.9338C10.3527 47.2339 10.1943 48.4671 10.1159 49.5999C10.0389 50.7097 10 51.8616 10 53.0249C10 56.0525 10.9624 58.5035 12.8603 60.3111C14.7348 62.0949 17.215 62.9998 20.2311 62.9998H48.1582C51.1743 62.9998 53.6537 62.0953 55.5285 60.3111C57.4269 58.5048 58.3893 56.0534 58.3893 53.0245C58.3889 51.8558 58.3495 50.7031 58.272 49.5986V49.5986Z" fill="#1AA8FF"/>
</svg>
