<svg width="68" height="68" viewBox="0 0 68 68" fill="none" xmlns="http://www.w3.org/2000/svg">
<path d="M59.2766 62.7385H54.0604V55.7835C56.2434 55.0648 57.8289 53.0015 57.8289 50.5673V45.9306C57.8289 42.8936 55.3702 40.413 52.36 40.413C49.3498 40.413 46.8911 42.8936 46.8911 45.9306V50.5673C46.8911 52.9783 48.4536 55.0185 50.5906 55.7603V62.7385H8.7234C7.78128 62.7385 7 63.5267 7 64.4772C7 65.4277 7.78128 66.2159 8.7234 66.2159H52.2221C52.2681 66.2159 52.2911 66.2391 52.337 66.2391C52.383 66.2391 52.406 66.2159 52.4519 66.2159H59.2766C60.2187 66.2159 61 65.4277 61 64.4772C61 63.5267 60.2187 62.7385 59.2766 62.7385Z" fill="#1AA8FF"/>
<path d="M34 62.3209H26.4026L26.4026 24.6179C29.5821 23.5726 31.8915 20.5714 31.8915 17.0307V10.2865C31.8915 5.86902 28.3103 2.26087 23.9259 2.26087C19.5414 2.26087 15.9602 5.86902 15.9602 10.2865V17.0307C15.9602 20.5377 18.2361 23.5051 21.3487 24.5842L21.3487 62.3209L13.032 62.3546C11.6597 62.3546 10.5217 61.7403 10.5217 63.1228C10.5217 64.5054 11.6597 65.6519 13.0319 65.6519L23.725 65.6182C23.7919 65.6182 23.8254 65.6519 23.8923 65.6519C23.9593 65.6519 23.9927 65.6182 24.0597 65.6182H34C35.3722 65.6182 36.5102 66.2325 36.5102 64.85C36.5102 63.4674 35.3723 62.3209 34 62.3209Z" fill="#1AA8FF"/>
</svg>
