<svg width="68" height="68" viewBox="0 0 68 68" fill="none" xmlns="http://www.w3.org/2000/svg">
<path d="M33.0613 5H14.7758C8.93506 5 6 7.96441 6 13.8639V60.7661H21.8493V49.7597C21.8493 48.5563 22.8472 47.5584 24.0506 47.5584C25.254 47.5584 26.2519 48.5269 26.2519 49.7597V60.7661H41.8077V13.8639C41.8077 7.96441 38.902 5 33.0613 5ZM31.3883 33.6168H16.8597C15.6563 33.6168 14.6584 32.6189 14.6584 31.4155C14.6584 30.2122 15.6563 29.2142 16.8597 29.2142H31.3883C32.5916 29.2142 33.5896 30.2122 33.5896 31.4155C33.5896 32.6189 32.5916 33.6168 31.3883 33.6168ZM31.3883 22.6104H16.8597C15.6563 22.6104 14.6584 21.6124 14.6584 20.4091C14.6584 19.2057 15.6563 18.2078 16.8597 18.2078H31.3883C32.5916 18.2078 33.5896 19.2057 33.5896 20.4091C33.5896 21.6124 32.5916 22.6104 31.3883 22.6104Z" fill="#1AA8FF"/>
<path d="M60.3439 58.5679H53.6813V49.7627C56.4696 48.8528 58.4948 46.2406 58.4948 43.1588V37.2887C58.4948 33.4437 55.3543 30.3032 51.5094 30.3032C47.6644 30.3032 44.5239 33.4437 44.5239 37.2887V43.1588C44.5239 46.2112 46.5198 48.7941 49.2494 49.7333V58.5679H9.77258C8.56921 58.5679 6.07129 59.5658 6.07129 60.7691C6.07129 61.9725 8.56921 62.9704 9.77258 62.9704H51.3333C51.392 62.9704 51.4213 62.9998 51.48 62.9998C51.5387 62.9998 51.5681 62.9704 51.6268 62.9704H60.3439C61.5473 62.9704 62.5452 61.9725 62.5452 60.7691C62.5452 59.5658 61.5473 58.5679 60.3439 58.5679Z" fill="#1AA8FF"/>
</svg>
