<svg width="31" height="31" viewBox="0 0 31 31" fill="none" xmlns="http://www.w3.org/2000/svg">
<path d="M30.0918 18.9444V17.5941C30.0918 17.3432 29.8885 17.14 29.6377 17.14C29.3869 17.14 29.1836 17.3432 29.1836 17.5941V18.944H24.8242V14.9012C24.8242 14.2926 24.3291 13.7974 23.7204 13.7974H21.7248V9.43805H25.5629C27.5594 9.43805 29.1836 11.0623 29.1836 13.0587V15.4749C29.1836 15.7257 29.3869 15.929 29.6377 15.929C29.8885 15.929 30.0918 15.7257 30.0918 15.4749V13.0587C30.0918 10.5615 28.0601 8.52984 25.5629 8.52984H21.6098C21.3103 7.62576 20.4575 6.97143 19.4543 6.97143H17.9486V5.25165C18.5662 5.22441 19.078 4.78405 19.2142 4.20074H23.7646C24.6177 4.2045 25.3389 3.4809 25.3389 2.62652C25.3389 1.75852 24.6326 1.0523 23.7646 1.0523H19.2141C19.0734 0.450045 18.5324 0 17.8878 0H14.9286C14.284 0 13.743 0.450045 13.6023 1.0523H9.05176C8.19011 1.0477 7.47754 1.76779 7.47754 2.62652C7.47754 3.49452 8.18376 4.20074 9.05176 4.20074H13.6022C13.7384 4.78405 14.2502 5.22441 14.8678 5.25165V6.97143H13.3621C12.3588 6.97143 11.5061 7.62576 11.2066 8.52984H7.79299C7.60554 8.00133 7.10082 7.6217 6.50885 7.6217C5.91688 7.6217 5.41216 8.00133 5.22471 8.52984H0.454102C0.203316 8.52984 0 8.73316 0 8.98395C0 9.23473 0.203316 9.43805 0.454102 9.43805H5.14648V13.7974H0.454102C0.203316 13.7974 0 14.0007 0 14.2515C0 14.5023 0.203316 14.7056 0.454102 14.7056H5.22459C5.41204 15.2342 5.91676 15.6139 6.50879 15.6139C7.10082 15.6139 7.6056 15.2342 7.79299 14.7056H11.2065C11.5059 15.6098 12.3587 16.2642 13.362 16.2642H14.1298C14.3806 16.2642 14.5839 16.061 14.5839 15.8101C14.5839 15.5593 14.3806 15.356 14.1298 15.356H13.3621C12.6821 15.356 12.1171 14.8553 12.016 14.2033C12.0158 14.2016 12.0154 14.2 12.0152 14.1984C12.0337 14.1149 11.9968 9.1955 12.0153 9.0362C12.0155 9.03523 12.0156 9.03432 12.0158 9.03335C12.1165 8.38084 12.6818 7.87963 13.3621 7.87963H19.4543C20.1346 7.87963 20.6999 8.38084 20.8006 9.03335C20.8008 9.03432 20.8009 9.03523 20.8011 9.0362C20.8714 9.64046 20.8624 13.6688 20.8012 14.1984C20.801 14.2 20.8006 14.2016 20.8005 14.2033C20.6993 14.8553 20.1343 15.356 19.4543 15.356H16.249C15.9982 15.356 15.7949 15.5593 15.7949 15.8101C15.7949 16.061 15.9982 16.2642 16.249 16.2642H19.4543C20.4576 16.2642 21.3104 15.6098 21.6098 14.7056H23.7204C23.8283 14.7056 23.916 14.7934 23.916 14.9012V18.9444C23.4146 18.9483 23.0078 19.3571 23.0078 19.8594V20.7532C23.0078 21.2579 23.4185 21.6686 23.9233 21.6686H30.0845C30.5893 21.6686 31 21.2579 31 20.7532V19.8594C31 19.3571 30.5932 18.9483 30.0918 18.9444ZM19.2502 1.96051H23.7646C24.1319 1.96051 24.4307 2.25931 24.4307 2.62652C24.4307 2.9869 24.1266 3.29436 23.7646 3.29254H19.2502V1.96051ZM13.5663 3.29254H9.05176C8.68454 3.29254 8.38574 2.99374 8.38574 2.62652C8.38574 2.26409 8.68878 1.95887 9.05176 1.96051H13.5663V3.29254ZM6.96289 14.2516C6.96289 14.502 6.75921 14.7057 6.50879 14.7057C6.25837 14.7057 6.05469 14.502 6.05469 14.2516V8.98401C6.05469 8.73358 6.25837 8.5299 6.50879 8.5299C6.75921 8.5299 6.96289 8.73358 6.96289 8.98401V14.2516ZM11.0916 13.7974H7.87109V9.43805H11.0916V13.7974ZM17.0404 6.97143H15.776V5.25323H17.0404V6.97143ZM14.9286 4.34503C14.6781 4.34503 14.4745 4.14135 14.4745 3.89092V1.3623C14.4745 1.11188 14.6781 0.908203 14.9286 0.908203H17.8878C18.1383 0.908203 18.3419 1.11188 18.3419 1.3623V3.89092C18.3419 4.14135 18.1383 4.34503 17.8878 4.34503H14.9286ZM30.0918 20.7532C30.0918 20.7572 30.0885 20.7604 30.0845 20.7604H23.9233C23.9193 20.7604 23.916 20.7572 23.916 20.7532V19.8594C23.916 19.8555 23.9193 19.8522 23.9233 19.8522H30.0845C30.0885 19.8522 30.0918 19.8555 30.0918 19.8594V20.7532ZM27.4506 23.2398C27.2043 22.9964 26.8035 22.9964 26.5573 23.2397C25.6999 24.0866 23.7058 26.2167 23.7058 27.703C23.7058 29.521 25.1853 31 27.0039 31C28.8225 31 30.302 29.521 30.302 27.703C30.302 26.2167 28.3079 24.0866 27.4506 23.2398ZM27.0039 30.0918C25.6861 30.0918 24.614 29.0202 24.614 27.703C24.614 27.1385 25.2446 25.8596 27.0039 24.0774C28.7634 25.8597 29.3938 27.1384 29.3938 27.703C29.3938 29.0202 28.3217 30.0918 27.0039 30.0918Z" fill="black"/>
</svg>
