<svg width="20" height="20" viewBox="0 0 20 20" fill="none" xmlns="http://www.w3.org/2000/svg">
<mask id="mask0_130_2792" style="mask-type:alpha" maskUnits="userSpaceOnUse" x="0" y="12" width="16" height="8">
<path fill-rule="evenodd" clip-rule="evenodd" d="M0 12.4551H15.754V19.794H0V12.4551Z" fill="white"/>
</mask>
<g mask="url(#mask0_130_2792)">
<path fill-rule="evenodd" clip-rule="evenodd" d="M7.877 13.9551C3.646 13.9551 1.5 14.6821 1.5 16.1141C1.5 17.5601 3.646 18.2941 7.877 18.2941C12.108 18.2941 14.254 17.5671 14.254 16.1361C14.254 14.6881 12.108 13.9551 7.877 13.9551ZM7.877 19.7941C5.929 19.7941 0 19.7941 0 16.1141C0 12.8341 4.495 12.4551 7.877 12.4551C9.825 12.4551 15.754 12.4551 15.754 16.1361C15.754 19.4151 11.259 19.7941 7.877 19.7941Z" fill="black"/>
</g>
<path fill-rule="evenodd" clip-rule="evenodd" d="M7.87697 1.5C5.77297 1.5 4.05997 3.213 4.05997 5.318C4.05597 6.337 4.44797 7.292 5.16297 8.013C5.87897 8.733 6.83297 9.132 7.84897 9.136L7.87697 9.886V9.136C9.98197 9.136 11.695 7.423 11.695 5.318C11.695 3.213 9.98197 1.5 7.87697 1.5ZM7.87697 10.636H7.84597C6.42697 10.631 5.09697 10.074 4.09997 9.07C3.10197 8.065 2.55497 6.731 2.55997 5.315C2.55997 2.386 4.94497 0 7.87697 0C10.81 0 13.195 2.386 13.195 5.318C13.195 8.25 10.81 10.636 7.87697 10.636Z" fill="black"/>
<path fill-rule="evenodd" clip-rule="evenodd" d="M17.2041 11.429C16.7901 11.429 16.4541 11.093 16.4541 10.679V6.66797C16.4541 6.25397 16.7901 5.91797 17.2041 5.91797C17.6181 5.91797 17.9541 6.25397 17.9541 6.66797V10.679C17.9541 11.093 17.6181 11.429 17.2041 11.429Z" fill="black"/>
<path fill-rule="evenodd" clip-rule="evenodd" d="M19.25 9.42383H15.16C14.746 9.42383 14.41 9.08783 14.41 8.67383C14.41 8.25983 14.746 7.92383 15.16 7.92383H19.25C19.664 7.92383 20 8.25983 20 8.67383C20 9.08783 19.664 9.42383 19.25 9.42383Z" fill="black"/>
</svg>
