<svg width="20" height="19" viewBox="0 0 20 19" fill="none" xmlns="http://www.w3.org/2000/svg">
<path d="M2.43172 16.2243C-0.0122505 13.7804 -0.0235448 9.81603 2.40654 7.38594L8.57579 1.21669C8.90069 0.891789 9.42806 0.893939 9.75417 1.22005C10.0804 1.54626 10.0825 2.07363 9.75764 2.39854L3.58839 8.56778C1.80692 10.3493 1.81466 13.257 3.60685 15.0492C5.39904 16.8414 8.3068 16.8491 10.0883 15.0677L16.5513 8.60461C17.6853 7.47068 17.68 5.62057 16.5396 4.48017C15.3991 3.33965 13.549 3.33438 12.415 4.46831L6.53948 10.3439C6.05364 10.8297 6.05579 11.6228 6.54452 12.1115C7.03325 12.6003 7.82635 12.6024 8.3122 12.1166L13.8939 6.53483C14.2188 6.20993 14.7462 6.21208 15.0723 6.53819C15.3985 6.86441 15.4007 7.39178 15.0758 7.71668L9.49404 13.2984C8.36012 14.4323 6.5099 14.427 5.3695 13.2866C4.22909 12.1461 4.22371 10.2959 5.35764 9.16201L11.2332 3.28646C13.0145 1.5051 15.9224 1.51274 17.7147 3.30504C19.5069 5.09723 19.5145 8.00509 17.7332 9.78645L11.2701 16.2495C8.84003 18.6796 4.8757 18.6683 2.43172 16.2243Z" fill="#898A8D"/>
</svg>
