<svg width="25" height="34" viewBox="0 0 25 34" fill="none" xmlns="http://www.w3.org/2000/svg">
<path d="M1.94118 23.0921H0.970588C0.434547 23.0921 0 22.6575 0 22.1215V8.53326C0 8.19453 0.176596 7.88031 0.465937 7.70419L11.6277 0.910068C11.9377 0.721384 12.327 0.721384 12.637 0.910068L23.7988 7.70419C24.0881 7.88031 24.2647 8.19453 24.2647 8.53326V22.1215C24.2647 22.6575 23.8302 23.0921 23.2941 23.0921H22.3235V32.798C22.3235 33.334 21.889 33.7686 21.3529 33.7686H2.91176C2.37572 33.7686 1.94118 33.334 1.94118 32.798V23.0921ZM9.22059 31.8274V29.8862H6.79412C6.25808 29.8862 5.82353 29.4517 5.82353 28.9156V26.9744H3.88235V31.8274H9.22059ZM11.1618 31.8274H20.3824V23.0921H3.88235V25.0333H6.79412C7.33016 25.0333 7.76471 25.4678 7.76471 26.0039V27.945H10.1912C10.7272 27.945 11.1618 28.3796 11.1618 28.9156V31.8274ZM13.5882 21.1509V12.4156C13.5882 11.8796 14.0228 11.445 14.5588 11.445H19.4118C19.9478 11.445 20.3824 11.8796 20.3824 12.4156V21.1509H22.3235V9.07872L12.1324 2.8754L1.94118 9.07872V21.1509H13.5882ZM15.5294 13.3862V21.1509H18.4412V13.3862H15.5294ZM3.88235 12.4156C3.88235 11.8796 4.3169 11.445 4.85294 11.445H10.6765C11.2125 11.445 11.6471 11.8796 11.6471 12.4156V18.2391C11.6471 18.7752 11.2125 19.2097 10.6765 19.2097H4.85294C4.3169 19.2097 3.88235 18.7752 3.88235 18.2391V12.4156ZM5.82353 13.3862V17.2686H9.70588V13.3862H5.82353Z" fill="#252525"/>
</svg>
