<svg width="33" height="33" viewBox="0 0 33 33" fill="none" xmlns="http://www.w3.org/2000/svg">
<path d="M29.9065 19.0781H12.3753C12.0907 19.0781 11.8597 19.3086 11.8597 19.5938C11.8597 19.8789 12.0907 20.1094 12.3753 20.1094H30.4222H31.406C31.5514 20.1094 31.6854 20.1676 31.7839 20.2733C31.8824 20.379 31.9309 20.5178 31.9206 20.6626C31.7762 22.6571 31.1476 27.6133 28.4344 30.5565C27.6069 31.4542 26.3905 31.9688 25.0978 31.9688H7.90276C6.61009 31.9688 5.39373 31.4542 4.56615 30.5565C1.85293 27.6138 1.22439 22.6576 1.08001 20.6626C1.06918 20.5178 1.11817 20.379 1.21665 20.2733C1.31514 20.1676 1.4492 20.1094 1.5946 20.1094H4.64092V25.7812C4.64092 26.35 5.10343 26.8125 5.67217 26.8125H10.3128C10.8815 26.8125 11.344 26.35 11.344 25.7812V19.0781C11.344 18.5094 10.8815 18.0469 10.3128 18.0469H5.67217C5.10343 18.0469 4.64092 18.5094 4.64092 19.0781H1.5946C1.16612 19.0781 0.753104 19.2581 0.461776 19.5711C0.170448 19.884 0.0209164 20.3094 0.0518539 20.7374C0.203963 22.8396 0.874276 28.0737 3.80818 31.2551C4.83015 32.3642 6.32289 33 7.90276 33H25.0978C26.6777 33 28.1704 32.3642 29.1929 31.2551C32.1268 28.0732 32.7971 22.8396 32.9492 20.7374C32.9802 20.3094 32.8307 19.8846 32.5393 19.5711C32.5228 19.5535 32.5022 19.5406 32.4852 19.5236V13.9219C32.4852 13.069 31.7911 12.375 30.9383 12.375H25.7815C25.4969 12.375 25.2659 12.6055 25.2659 12.8906V14.4375C25.2659 14.7226 25.4969 14.9531 25.7815 14.9531V15.9844C25.7815 16.2695 26.0125 16.5 26.2972 16.5H28.3597C28.6443 16.5 28.8753 16.2695 28.8753 15.9844V14.9531H29.9065V19.0781ZM5.67217 19.0781H10.3128L10.3133 25.7812H5.67217V19.0781ZM27.844 15.4688H26.8128V14.9531H27.844V15.4688ZM28.3597 13.9219H26.2972V13.4062H30.9378C31.2219 13.4062 31.4534 13.6373 31.4534 13.9219V19.0781H31.406H30.9378V14.9531C30.9378 14.3844 30.4753 13.9219 29.9065 13.9219H28.3597Z" fill="black"/>
<path d="M32.4844 1.03125H30.4219C30.4219 0.462516 29.9594 0 29.3906 0H21.6562C21.0875 0 20.625 0.462516 20.625 1.03125H18.5625C18.2779 1.03125 18.0469 1.26173 18.0469 1.54688V3.60938C18.0469 3.89452 18.2779 4.125 18.5625 4.125H19.5938C19.8784 4.125 20.1094 3.89452 20.1094 3.60938C20.1094 3.32423 19.8784 3.09375 19.5938 3.09375H19.0781V2.0625H20.625V10.3125C20.625 10.8812 21.0875 11.3438 21.6562 11.3438H29.3906C29.9594 11.3438 30.4219 10.8812 30.4219 10.3125V4.125H32.4844C32.769 4.125 33 3.89452 33 3.60938V1.54688C33 1.26173 32.769 1.03125 32.4844 1.03125ZM21.6562 10.3125V1.03125H29.3906V1.54688V3.60834V3.60938C29.3906 3.60938 29.3906 3.60989 29.3906 3.61041L29.3911 10.3125H21.6562ZM31.9688 3.09375H30.4219V2.0625H31.9688V3.09375Z" fill="black"/>
<path d="M0.515625 14.9531H18.0469C18.3315 14.9531 18.5625 14.7226 18.5625 14.4375V12.375C18.5625 12.0899 18.3315 11.8594 18.0469 11.8594H16.0705L16.4794 10.4569C16.5247 10.3006 16.4943 10.1325 16.3969 10.0031C16.2994 9.87319 16.1468 9.79688 15.9844 9.79688H15.9581C15.9751 9.71334 15.9844 9.62723 15.9844 9.53906V9.02344C15.9844 8.31239 15.4058 7.73438 14.6953 7.73438H13.6641C12.9535 7.73438 12.375 8.31239 12.375 9.02344V9.53906C12.375 9.62723 12.3843 9.71334 12.4013 9.79688H12.375C12.2126 9.79688 12.06 9.87319 11.9625 10.0031C11.865 10.1325 11.8341 10.3006 11.88 10.4569L12.2889 11.8594H11.3438V9.28125C11.3438 8.71252 10.8812 8.25 10.3125 8.25H7.73438C7.16564 8.25 6.70312 8.71252 6.70312 9.28125V11.8594H6.11325C6.11325 11.8166 6.11634 11.7743 6.11067 11.7315L5.72395 8.63775C5.66002 8.12264 5.22019 7.73438 4.70095 7.73438H4.64062V6.1875C4.64062 5.90236 4.40963 5.67188 4.125 5.67188H3.09375C2.80912 5.67188 2.57812 5.90236 2.57812 6.1875C2.57812 6.47264 2.80912 6.70312 3.09375 6.70312H3.60938V7.73438H3.54905C3.03033 7.73438 2.58998 8.12264 2.52605 8.63775L2.13933 11.7315C2.13366 11.7743 2.13675 11.8166 2.13675 11.8594H0.515625C0.231 11.8594 0 12.0899 0 12.375V14.4375C0 14.7226 0.231 14.9531 0.515625 14.9531ZM13.4062 9.53906V9.02344C13.4062 8.8837 13.5243 8.76562 13.6641 8.76562H14.6953C14.835 8.76562 14.9531 8.8837 14.9531 9.02344V9.53906C14.9531 9.6788 14.835 9.79688 14.6953 9.79688H13.6641C13.5243 9.79688 13.4062 9.6788 13.4062 9.53906ZM13.0623 10.8281H13.6641H14.6953H15.297L14.9964 11.8594H13.3635L13.0623 10.8281ZM10.3125 9.28125V9.79688H7.73438V9.28125H10.3125ZM7.73438 10.8281H10.313L10.3135 11.8594H7.73438V10.8281ZM3.54905 8.76562H4.70095L5.08767 11.8594H3.16233L3.54905 8.76562ZM1.03125 12.8906H3.16233H5.08767H7.73438H10.3125H12.9767H15.3832H17.5312V13.9219H1.03125V12.8906Z" fill="black"/>
</svg>
