<svg width="36" height="37" viewBox="0 0 36 37" fill="none" xmlns="http://www.w3.org/2000/svg">
<path d="M29.4829 0.619783C28.0635 1.00009 27.0915 2.49893 27.6114 3.93544L32.106 16.3538C32.4214 16.0939 32.8197 15.945 33.2363 15.945C33.911 15.9315 34.6367 15.9338 35.2873 15.9739L32.7638 2.54913C32.5178 1.24101 31.2774 0.453525 30.0202 0.531693C29.8407 0.542899 29.6603 0.572272 29.4829 0.619783ZM30.2692 2.90237C30.5967 2.90237 30.8622 3.16778 30.8622 3.49527C30.8622 3.82276 30.5967 4.08823 30.2692 4.08823C29.9418 4.08823 29.6763 3.82273 29.6763 3.49527C29.6763 3.1678 29.9418 2.90237 30.2692 2.90237ZM16.3997 7.10166C14.9244 7.74418 14.0263 9.12978 13.5693 10.4127L13.0771 11.7955H20.2296C20.4297 11.2531 20.707 10.7844 21.5359 10.3027L27.3311 6.64535L26.4961 4.33841C26.3403 3.90783 26.2769 3.47535 26.2865 3.05407L16.3997 7.10166ZM12.4841 12.9813C11.5062 12.9813 10.815 13.8095 10.7111 14.6931L10.7245 14.6189L9.64749 18.912H1.80825C0.833021 18.912 0.0270844 19.7145 0.0270844 20.6897V24.8438C0.0270844 25.8191 0.833021 26.6203 1.80825 26.6203H21.9698C22.9451 26.6203 23.7729 25.8206 23.7509 24.8299V20.6897C23.7504 20.6146 23.7352 20.5404 23.707 20.4707L21.3352 14.5401C21.2075 14.2209 21.0622 13.873 20.8002 13.5591C20.5381 13.2453 20.1033 12.9813 19.6015 12.9813L12.4841 12.9813ZM13.6631 15.3544H13.6698H15.4475V20.0991H12.7202C12.3286 20.0997 12.0437 19.7276 12.1469 19.3498L13.0966 15.7955C13.1647 15.5379 13.3964 15.3575 13.6629 15.3544H13.6631ZM16.6336 15.3544H18.5376C18.7761 15.3542 18.9915 15.4971 19.0842 15.7168L21.3298 21.0534C21.3614 21.1265 21.378 21.2053 21.3784 21.285V23.658C21.3772 23.9836 21.1134 24.2473 20.7878 24.2486H17.2289C17.0306 24.2492 16.8448 24.1507 16.7344 23.9857L16.6335 23.834L16.6336 15.3544ZM33.2363 17.1309C33.048 17.1309 32.871 17.2203 32.7592 17.3717L27.4237 24.4849C27.1299 24.8752 27.4081 25.4335 27.8963 25.4345H31.4551C33.7443 25.4345 35.6035 23.5742 35.6035 21.285V17.7261C35.6047 17.3987 35.3403 17.1322 35.0128 17.1308L33.2363 17.1309ZM2.98533 21.2758C3.31824 21.2713 3.58912 21.5427 3.58524 21.8756V23.658C3.60317 24.4666 2.38118 24.4666 2.39933 23.658V21.8756C2.39485 21.5482 2.65786 21.2796 2.98533 21.2758ZM5.35829 21.2758C5.69121 21.2713 5.96209 21.5427 5.95821 21.8756V23.658C5.97614 24.4659 4.75486 24.4659 4.7723 23.658V21.8756C4.76782 21.5482 5.03083 21.2796 5.35829 21.2758ZM7.72662 21.2758C8.0609 21.269 8.33395 21.5413 8.33001 21.8756V23.658C8.31208 24.4311 7.16147 24.4311 7.1441 23.658V21.8756C7.13959 21.5495 7.40052 21.2815 7.72662 21.2758ZM4.1805 27.8063C1.8913 27.8063 0.0263672 29.6678 0.0263672 31.957C0.0263672 34.2462 1.8913 36.1053 4.1805 36.1053H22.5609C24.8501 36.1053 26.7092 34.2462 26.7092 31.957C26.7092 29.6678 24.8501 27.8063 22.5609 27.8063H4.1805ZM5.36757 30.1793C6.34298 30.1792 7.14408 30.9816 7.1441 31.957C7.1441 32.9324 6.343 33.7382 5.36757 33.7382C4.39214 33.7382 3.58524 32.9324 3.58524 31.957C3.58524 30.9816 4.39219 30.1793 5.36757 30.1793ZM10.703 30.1793C11.6784 30.1793 12.4795 30.9816 12.4795 31.957C12.4795 32.9324 11.6784 33.7382 10.703 33.7382C9.72755 33.7382 8.92065 32.9324 8.92065 31.957C8.92065 30.9816 9.72757 30.1792 10.703 30.1793ZM16.0384 30.1793C17.0138 30.1792 17.8149 30.9816 17.8149 31.957C17.8149 32.9324 17.0138 33.7382 16.0384 33.7382C15.0629 33.7382 14.2619 32.9324 14.2619 31.957C14.2619 30.9816 15.063 30.1792 16.0384 30.1793ZM21.3738 30.1793C22.3492 30.1792 23.1561 30.9816 23.1561 31.957C23.1561 32.9324 22.3492 33.7382 21.3738 33.7382C20.3984 33.7382 19.5973 32.9324 19.5973 31.957C19.5973 30.9816 20.3984 30.1792 21.3738 30.1793Z" fill="#FBBB00"/>
</svg>
