<svg width="29" height="31" viewBox="0 0 29 31" fill="none" xmlns="http://www.w3.org/2000/svg">
<path d="M3.02832 27.4351H12.3286V2.45654H3.02832V27.4351ZM3.67515 13.0337L11.6818 5.02713V12.2736L11.6696 12.2614L3.67515 20.2558V13.0337ZM3.67515 26.7883V21.1705L11.6818 13.1639V26.7884H3.67515V26.7883ZM11.6818 4.13682L11.6696 4.12462L3.67515 12.119V10.3131L10.8848 3.10337H11.6818V4.13682ZM9.97009 3.10337L3.67515 9.3984V3.10337H9.97009Z" fill="black"/>
<path d="M26.9898 29.2444V0H1.2566V29.2444H0V31H28.2465V29.2444H26.9898ZM26.343 29.2444H22.8867L23.1258 27.4349H25.2173V2.45619H15.9177V27.4349H19.1957L19.4347 29.2444H14.4466V0.646829H26.343V29.2444ZM16.5761 10.4071L23.8801 3.10302H24.5704V4.21954L16.5645 12.2254V10.3956L16.5761 10.4071ZM16.5645 9.50404V3.10302H22.9655L16.5645 9.50404ZM24.5704 12.3563L16.5645 20.3623V13.1163L16.5765 13.1282L24.5704 5.13425V12.3563ZM16.5645 21.253L16.5765 21.265L24.5704 13.2709V26.788H23.2113L23.5165 24.4779H21.5304V24.0677L22.1957 23.698L21.8816 23.1326L21.5304 23.3277V22.8653C22.1004 22.7206 22.5238 22.2047 22.5238 21.5904V19.2115L21.207 20.3139L19.8903 19.2115V21.5904C19.8903 22.2047 20.3137 22.7206 20.8836 22.8653V24.478H18.8052L19.1104 26.7881H16.5646V21.253H16.5645ZM21.2069 22.2602C20.8375 22.2602 20.537 21.9597 20.537 21.5903V20.5965L21.2069 21.1573L21.8769 20.5965V21.5903C21.8769 21.9597 21.5764 22.2602 21.2069 22.2602ZM22.7784 25.1248L22.2413 29.1905H20.0801L19.5429 25.1248H22.7784ZM1.90343 0.646829H13.7998V29.2444H1.90343V0.646829ZM27.5996 30.3532H0.646829V29.8912H27.5996V30.3532Z" fill="black"/>
<path d="M13.3753 16.3311H12.7285V19.0416H13.3753V16.3311Z" fill="black"/>
<path d="M15.5179 16.3311H14.8711V19.0416H15.5179V16.3311Z" fill="black"/>
</svg>
