<svg width="32" height="30" viewBox="0 0 32 30" fill="none" xmlns="http://www.w3.org/2000/svg">
<path d="M31.5309 25.1404H29.0712V7.69263H30.0093C30.2682 7.69263 30.4784 7.4825 30.4784 7.22356V4.62806H31.5309C31.7905 4.62806 32 4.41794 32 4.159V0.469063C32 0.210125 31.7905 0 31.5309 0H14.6241C14.3651 0 14.155 0.210125 14.155 0.469063C14.155 0.728 14.3651 0.938125 14.6241 0.938125H31.0619V3.68994C30.2127 3.68994 10.0497 3.68994 8.95344 3.68994C8.6945 3.68994 8.48438 3.90006 8.48438 4.159C8.48438 4.41794 8.6945 4.62806 8.95344 4.62806C10.1533 4.62806 28.7414 4.62806 29.5403 4.62806V6.7545C28.1624 6.7545 3.57906 6.7545 2.45975 6.7545V4.62806H7.07719C7.33675 4.62806 7.54625 4.41794 7.54625 4.159C7.54625 3.90006 7.33675 3.68994 7.07719 3.68994C6.42625 3.68994 2.17269 3.68994 1.52163 3.68994H0.938125V0.938125H12.7479C13.0068 0.938125 13.2169 0.728 13.2169 0.469063C13.2169 0.210125 13.0068 0 12.7479 0H0.469063C0.2095 0 0 0.210125 0 0.469063V4.159C0 4.41794 0.2095 4.62806 0.469063 4.62806H1.52163V7.22356C1.52163 7.4825 1.73175 7.69263 1.99069 7.69263C2.073 7.69263 2.69219 7.69263 2.92881 7.69263V25.1404H0.469063C0.2095 25.1404 0 25.3506 0 25.6095V29.2994C0 29.5584 0.2095 29.7685 0.469063 29.7685H7.07719C7.33675 29.7685 7.54625 29.5584 7.54625 29.2994C7.54625 29.0405 7.33675 28.8304 7.07719 28.8304H0.938125V26.0786C4.40256 26.0786 6.62713 26.0786 12.7479 26.0786C13.0068 26.0786 13.2169 25.8684 13.2169 25.6095C13.2169 25.3506 13.0068 25.1404 12.7479 25.1404H8.65137V11.7259H23.3486V25.1404H14.6241C14.3651 25.1404 14.155 25.3506 14.155 25.6095C14.155 25.8684 14.3651 26.0786 14.6241 26.0786C15.4778 26.0786 30.4681 26.0786 31.0619 26.0786V28.8304H8.95344C8.6945 28.8304 8.48438 29.0405 8.48438 29.2994C8.48438 29.5584 8.6945 29.7685 8.95344 29.7685H31.5309C31.7905 29.7685 32 29.5584 32 29.2994V25.6095C32 25.3506 31.7905 25.1404 31.5309 25.1404ZM28.1331 25.1404H24.2868V11.2568C24.2868 10.9979 24.0766 10.7878 23.8177 10.7878H8.18231C7.92338 10.7878 7.71325 10.9979 7.71325 11.2568V25.1404H3.86694V7.69263H28.1331V25.1404Z" fill="black"/>
<path d="M20.3249 17.5766C20.2573 17.3534 20.0366 17.2133 19.8058 17.2489C19.5751 17.2839 19.4056 17.4835 19.4075 17.7161C19.4125 18.3684 19.2536 18.7493 19.1048 18.9626C17.7952 16.7955 18.4112 13.0018 18.4181 12.9623C18.4475 12.7872 18.3756 12.6102 18.2323 12.5058C18.0891 12.4007 17.899 12.3857 17.7408 12.467C15.8844 13.4223 14.9649 15.2676 14.7607 17.3615C14.6646 16.8436 14.6093 16.1894 14.6093 15.8499C14.6074 15.6604 14.4917 15.4909 14.316 15.4196C14.1402 15.3489 13.9388 15.3908 13.8063 15.5259C12.2446 17.1126 12.3653 18.5304 12.7368 19.4891C12.4517 19.3103 12.1727 19.0026 12.0288 18.4734C11.8946 17.9763 11.1659 18.0323 11.1101 18.5448C11.1045 18.5979 10.9719 19.86 11.3628 21.2628C12.9522 26.9481 20.7629 25.6689 20.9103 20.7193C20.9434 19.6129 20.6151 18.531 20.3249 17.5766ZM19.9722 20.6918C19.8514 24.7586 12.8887 25.8028 12.095 20.1821C12.6448 20.5811 13.2727 20.6899 13.6642 20.6699C13.8306 20.6612 13.98 20.5649 14.0563 20.4173C14.1333 20.269 14.1258 20.0921 14.037 19.9513C13.6723 19.3741 13.0513 18.3909 13.768 17.1013C13.8967 18.0522 14.2195 19.3643 15.1783 19.4591C15.4822 19.4884 15.7285 19.2276 15.6893 18.9325C15.6849 18.8956 15.289 15.6066 17.3742 13.8323C17.2585 15.3058 17.2535 18.0257 18.5112 19.7643C18.6193 19.9144 18.787 20.0164 18.9708 20.0426C19.3512 20.0985 19.6437 19.8255 19.867 19.5091C19.9415 19.9031 19.984 20.2978 19.9722 20.6918Z" fill="black"/>
<path d="M17.9577 21.1335C17.6376 20.4897 17.5509 19.6166 17.5725 18.8983C17.5725 18.2875 16.8482 18.0717 16.5055 18.5043C15.8345 19.348 15.6193 20.1441 15.5724 20.7295C15.3845 20.6155 15.2292 20.5456 15.0339 20.5456C14.6774 20.5456 14.3666 20.7877 14.2765 21.1341C14.0525 22.0096 14.3826 22.7961 14.982 23.2531C15.715 23.9294 17.2198 23.8892 17.8514 23.0317C18.2791 22.451 18.2768 21.777 17.9577 21.1335ZM15.6093 22.5551C15.5013 22.4506 15.0893 22.183 15.1483 21.572C15.5055 21.8163 15.581 22.0505 15.9326 22.0505C16.3018 22.0505 16.5846 21.7209 16.5273 21.3563C16.4634 20.9601 16.506 20.4924 16.6868 20.0279C16.8515 21.3403 17.2478 21.5746 17.2478 22.0355C17.2478 22.8862 16.0058 22.9381 15.6093 22.5551Z" fill="black"/>
</svg>
