<svg width="31" height="31" viewBox="0 0 31 31" fill="none" xmlns="http://www.w3.org/2000/svg">
<path d="M30.6519 5.19493L15.6685 0.0282392C15.5594 -0.00941307 15.4408 -0.00941307 15.3316 0.0282392L0.348235 5.19493C0.139888 5.26675 6.45837e-05 5.46282 0 5.68318V30.4833C0 30.7686 0.231339 31 0.516669 31H3.10002C3.38535 31 3.61668 30.7686 3.61668 30.4833V14.4666H27.3835V30.4833C27.3835 30.7686 27.6148 31 27.9001 31H30.4835C30.7688 31 31.0002 30.7686 31.0002 30.4833V5.68318C31.0001 5.46282 30.8603 5.26675 30.6519 5.19493ZM2.58335 13.9499V29.9666H1.03334V10.3332H2.58335V13.9499ZM27.3835 13.4332H3.61668V12.3999H27.3835V13.4332ZM27.3835 11.3665H3.61668V10.3332H27.3835V11.3665ZM29.9668 29.9666H28.4168V10.3332H29.9668V29.9666ZM29.9668 9.29987H1.03334V6.05157L15.5001 1.06313L29.9668 6.05157V9.29987Z" fill="black"/>
<path d="M25.5461 22.2682L23.6344 21.3123L21.9294 17.9023C21.6671 17.3776 21.1298 17.0471 20.5432 17.0498H10.4537C9.86608 17.0479 9.32855 17.3801 9.06744 17.9065L7.36243 21.3165L5.45076 22.2723C5.27606 22.3596 5.16556 22.5379 5.16504 22.7332V29.9665C5.16504 30.5373 5.62765 30.9999 6.19838 30.9999H8.26505C8.83578 30.9999 9.29839 30.5373 9.29839 29.9665V28.4165H21.6985V29.9665C21.6985 30.5373 22.1611 30.9999 22.7318 30.9999H24.7985C25.3692 30.9999 25.8318 30.5373 25.8318 29.9665V22.7332C25.8329 22.5364 25.7221 22.3561 25.5461 22.2682ZM9.99176 18.3689C10.0786 18.1933 10.2578 18.0825 10.4537 18.0832H20.5432C20.7391 18.0825 20.9182 18.1933 21.0051 18.3689L22.4125 21.1832H8.58436L9.99176 18.3689ZM8.26505 29.9665H6.19838V28.4165H8.26505V29.9665ZM24.7985 29.9665H22.7318V28.4165H24.7985V29.9665ZM24.7985 27.3832H8.78172H6.19838V23.0525L7.87032 22.2165H23.1265L24.7985 23.0525V27.3832Z" fill="black"/>
</svg>
