<svg width="32" height="31" viewBox="0 0 32 31" fill="none" xmlns="http://www.w3.org/2000/svg">
<path d="M31.2046 8.46373L16.1346 0.0923316C15.9174 -0.0307772 15.6494 -0.0307772 15.4322 0.0923316L0.36945 8.46373C0.137716 8.59408 0.000123791 8.83305 0.000123791 9.09375V30.2902C-0.0071179 30.6812 0.304275 30.9999 0.695326 30.9999C0.702568 30.9999 0.70981 30.9999 0.70981 30.9999H30.857C31.248 31.0071 31.5667 30.6957 31.5667 30.3047C31.5667 30.2974 31.5667 30.2902 31.5667 30.2902V9.101C31.5739 8.83305 31.4363 8.59408 31.2046 8.46373ZM25.9254 29.5588H5.64864V26.5897H25.9254V29.5588ZM25.9254 25.1413H5.64864V22.3895H25.9254V25.1413ZM25.9254 20.9412H5.64864V18.1893H25.9254V20.9412ZM25.9254 16.741H5.64864V13.9891H25.9254V16.741ZM30.1256 29.5588H27.3737V13.2867C27.3737 12.8884 27.0768 12.5408 26.6713 12.5408H4.90275C4.50446 12.5408 4.20031 12.8884 4.20031 13.2867V29.5588H1.44846V9.52102L15.787 1.54791L30.1256 9.52102V29.5588Z" fill="#474747"/>
</svg>
