<svg width="32" height="31" viewBox="0 0 32 31" fill="none" xmlns="http://www.w3.org/2000/svg">
<path d="M31.1566 11.512L17.321 0.471034C16.5332 -0.157011 15.4332 -0.157011 14.6416 0.471034L0.809743 11.512C0.360077 11.8688 0.0813592 12.3816 0.0144668 12.9502C-0.0524256 13.5188 0.114805 14.0799 0.471565 14.5259L1.3486 15.6222C1.98408 16.4174 3.07294 16.6404 3.95369 16.2205V25.9124C3.95369 27.0979 4.91619 28.0604 6.10168 28.0604H9.66556C10.0743 28.0604 10.4088 27.726 10.4088 27.3172C10.4088 26.9084 10.0743 26.5739 9.66556 26.5739H6.10168C5.73748 26.5739 5.44018 26.2766 5.44018 25.9124V14.7451C5.44018 14.459 5.27667 14.1988 5.02025 14.0762C4.76383 13.9536 4.4591 13.987 4.23612 14.1654L3.44084 14.8009C3.15469 15.0276 2.73847 14.983 2.51178 14.6968L1.63475 13.6005C1.52326 13.463 1.47495 13.2921 1.49353 13.1137C1.51211 12.939 1.6013 12.783 1.7388 12.6715L15.5707 1.6305C15.8122 1.43726 16.1504 1.43726 16.3957 1.6305L30.2275 12.6715C30.365 12.783 30.4505 12.939 30.4728 13.1137C30.4914 13.2884 30.4431 13.463 30.3316 13.6005L29.4546 14.6968C29.2279 14.983 28.8116 15.0276 28.5255 14.8009L27.7302 14.1654C27.5072 13.987 27.2025 13.9536 26.9461 14.0762C26.6897 14.1988 26.5262 14.459 26.5262 14.7451V25.9087C26.5262 26.2729 26.2289 26.5702 25.8647 26.5702H22.3008C21.892 26.5702 21.5575 26.9047 21.5575 27.3135C21.5575 27.7223 21.892 28.0567 22.3008 28.0567H25.8647C27.0501 28.0567 28.0127 27.0942 28.0127 25.9087V16.2205C28.8934 16.6441 29.9823 16.4212 30.6177 15.6222L31.4948 14.5259C31.8515 14.0762 32.0151 13.5188 31.9519 12.9465C31.8887 12.3742 31.6025 11.8688 31.1566 11.512Z" fill="black"/>
<path d="M16.7266 24.6747V15.752C16.7266 15.3433 16.3921 15.0088 15.9833 15.0088C15.5745 15.0088 15.2401 15.3433 15.2401 15.752V24.6785C14.5006 24.9758 13.9766 25.6967 13.9766 26.5403C13.9766 27.6477 14.8759 28.5471 15.9833 28.5471C17.0908 28.5471 17.9901 27.6477 17.9901 26.5403C17.9901 25.693 17.4661 24.972 16.7266 24.6747ZM15.9833 27.0569C15.6972 27.0569 15.4631 26.8227 15.4631 26.5366C15.4631 26.2504 15.6972 26.0163 15.9833 26.0163C16.2695 26.0163 16.5036 26.2504 16.5036 26.5366C16.5036 26.8227 16.2695 27.0569 15.9833 27.0569Z" fill="black"/>
<path d="M15.983 7.79199C14.3367 7.79199 12.9951 9.13356 12.9951 10.7799V23.2293C12.0512 24.0803 11.5197 25.2732 11.5235 26.559C11.5346 28.9895 13.5191 30.9814 15.9495 30.9999H15.983C17.1684 30.9999 18.2833 30.5391 19.1232 29.7067C19.9742 28.8631 20.4387 27.7408 20.4387 26.5404C20.4387 25.2621 19.9073 24.0766 18.9671 23.2293V10.7799C18.9708 9.12984 17.6292 7.79199 15.983 7.79199ZM18.0789 28.6476C17.514 29.2087 16.7596 29.5172 15.9644 29.5097C14.3441 29.4986 13.0211 28.1719 13.0137 26.5479C13.01 25.604 13.4373 24.7381 14.1917 24.1658C14.3775 24.0246 14.4853 23.8053 14.4853 23.5749V10.7799C14.4853 9.95113 15.1579 9.27849 15.9867 9.27849C16.8154 9.27849 17.488 9.95113 17.488 10.7799V23.5786C17.488 23.8127 17.5958 24.0283 17.7816 24.1695C18.5286 24.7381 18.9597 25.6002 18.9597 26.5404C18.9559 27.3357 18.6438 28.0864 18.0789 28.6476Z" fill="black"/>
<path d="M11.2519 10.1523H9.18563C8.77684 10.1523 8.44238 10.4868 8.44238 10.8956C8.44238 11.3044 8.77684 11.6388 9.18563 11.6388H11.2519C11.6607 11.6388 11.9951 11.3044 11.9951 10.8956C11.9951 10.4868 11.6644 10.1523 11.2519 10.1523Z" fill="black"/>
<path d="M11.2522 12.8799H10.1485C9.73974 12.8799 9.40527 13.2143 9.40527 13.6231C9.40527 14.0319 9.73974 14.3664 10.1485 14.3664H11.2522C11.661 14.3664 11.9955 14.0319 11.9955 13.6231C11.9955 13.2143 11.6648 12.8799 11.2522 12.8799Z" fill="black"/>
<path d="M9.18563 17.09H11.2519C11.6607 17.09 11.9951 16.7556 11.9951 16.3468C11.9951 15.938 11.6607 15.6035 11.2519 15.6035H9.18563C8.77684 15.6035 8.44238 15.938 8.44238 16.3468C8.44238 16.7556 8.77684 17.09 9.18563 17.09Z" fill="black"/>
<path d="M11.2522 18.3281H10.1485C9.73974 18.3281 9.40527 18.6626 9.40527 19.0714C9.40527 19.4802 9.73974 19.8146 10.1485 19.8146H11.2522C11.661 19.8146 11.9955 19.4802 11.9955 19.0714C11.9955 18.6626 11.6648 18.3281 11.2522 18.3281Z" fill="black"/>
<path d="M9.18563 22.5422H11.2519C11.6607 22.5422 11.9951 22.2077 11.9951 21.7989C11.9951 21.3901 11.6607 21.0557 11.2519 21.0557H9.18563C8.77684 21.0557 8.44238 21.3901 8.44238 21.7989C8.44238 22.2077 8.77684 22.5422 9.18563 22.5422Z" fill="black"/>
</svg>
