<svg width="24" height="24" viewBox="0 0 24 24" fill="none" xmlns="http://www.w3.org/2000/svg">
<path fill-rule="evenodd" clip-rule="evenodd" d="M18.3912 11.1303V8.39122C18.3912 4.86145 15.5298 2 12 2C8.47023 2 5.60879 4.86145 5.60879 8.39122V11.1303C5.60879 14.1433 2.86969 14.8737 2.86969 16.6085C2.86969 18.1607 6.43051 19.3476 12 19.3476C17.5695 19.3476 21.1303 18.1607 21.1303 16.6085C21.1303 14.8737 18.3912 14.1433 18.3912 11.1303Z" stroke="#09110E" stroke-width="2" stroke-linecap="round" stroke-linejoin="round"/>
<path d="M11.9996 21.1736C11.0765 21.1736 10.2091 21.1425 9.39288 21.0823C9.75003 22.2215 10.8057 22.9969 11.9996 22.9969C13.1935 22.9969 14.2491 22.2215 14.6063 21.0823C13.79 21.1425 12.9227 21.1736 11.9996 21.1736Z" fill="#09110E"/>
</svg>
