<svg width="148" height="40" viewBox="0 0 148 40" fill="none" xmlns="http://www.w3.org/2000/svg">
<path d="M12.5181 0.442913L2.18839 8.13337C1.50923 8.63839 0.957618 9.29527 0.577636 10.0515C0.197655 10.8078 -0.000160404 11.6424 9.75917e-08 12.4888V22.5717C5.18911e-08 23.2847 0.140469 23.9907 0.413384 24.6494C0.686299 25.3081 1.08631 25.9066 1.59058 26.4107C2.09484 26.9148 2.69347 27.3146 3.35227 27.5873C4.01108 27.8599 4.71715 28.0002 5.43016 27.9999V33.2843C5.43007 33.505 5.49544 33.7208 5.61802 33.9043C5.74059 34.0879 5.91486 34.2309 6.11876 34.3154C6.32266 34.3999 6.54704 34.422 6.7635 34.3789C6.97996 34.3358 7.17878 34.2295 7.3348 34.0734L13.4102 27.9999H22.2901C23.0031 28.0002 23.7092 27.8599 24.368 27.5873C25.0268 27.3146 25.6254 26.9148 26.1297 26.4107C26.6339 25.9066 27.0339 25.3081 27.3069 24.6494C27.5798 23.9907 27.7202 23.2847 27.7202 22.5717V12.4888C27.7205 11.6426 27.5229 10.8081 27.1433 10.0519C26.7636 9.2957 26.2125 8.6387 25.5338 8.13337L15.1982 0.442913C14.8107 0.155289 14.3408 0 13.8582 0C13.3755 0 12.9057 0.155289 12.5181 0.442913Z" fill="#FF2C2C"/>
<path d="M32.5713 5.71772L42.901 13.4101C43.5799 13.915 44.1314 14.5715 44.5113 15.3274C44.8913 16.0833 45.0893 16.9176 45.0894 17.7636V27.8465C45.0889 29.2863 44.5166 30.667 43.4983 31.6849C42.48 32.7029 41.0991 33.2747 39.6592 33.2747V38.5591C39.6593 38.7798 39.594 38.9956 39.4714 39.1791C39.3488 39.3627 39.1746 39.5057 38.9707 39.5902C38.7668 39.6747 38.5424 39.6968 38.3259 39.6537C38.1094 39.6106 37.9106 39.5043 37.7546 39.3482L31.6792 33.2747H22.8032C21.3634 33.2747 19.9825 32.7029 18.9642 31.6849C17.9459 30.667 17.3736 29.2863 17.373 27.8465V17.7636C17.3731 16.9178 17.5708 16.0837 17.9505 15.3278C18.3301 14.5719 18.8811 13.9153 19.5595 13.4101L29.8912 5.71772C30.2788 5.4301 30.7486 5.27481 31.2312 5.27481C31.7139 5.27481 32.1837 5.4301 32.5713 5.71772Z" fill="#1AA8FF"/>
<path d="M27.7164 22.5714V12.4885C27.7154 11.7575 27.5667 11.0344 27.2791 10.3624C26.9916 9.69039 26.5711 9.08348 26.043 8.57812L19.5595 13.4097C18.8811 13.9148 18.3301 14.5715 17.9505 15.3274C17.5708 16.0832 17.3731 16.9173 17.373 17.7631V27.8461C17.373 27.8966 17.373 27.9491 17.373 27.9996H22.2785C22.9921 28.0009 23.699 27.8614 24.3587 27.5892C25.0184 27.317 25.618 26.9173 26.1231 26.4131C26.6282 25.909 27.0289 25.3101 27.3023 24.6509C27.5757 23.9917 27.7164 23.285 27.7164 22.5714Z" fill="#622690"/>
<path d="M68.186 10.6H71.2V26H68.186V19.62H62.466V26H59.43V10.6H62.466V16.716H68.186V10.6ZM83.7409 24.636C82.6115 25.7507 81.2329 26.308 79.6049 26.308C77.9769 26.308 76.5982 25.7507 75.4689 24.636C74.3542 23.5067 73.7969 22.128 73.7969 20.5C73.7969 18.872 74.3542 17.5007 75.4689 16.386C76.5982 15.2567 77.9769 14.692 79.6049 14.692C81.2329 14.692 82.6115 15.2567 83.7409 16.386C84.8702 17.5007 85.4349 18.872 85.4349 20.5C85.4349 22.128 84.8702 23.5067 83.7409 24.636ZM77.4709 22.678C78.0429 23.25 78.7542 23.536 79.6049 23.536C80.4555 23.536 81.1669 23.25 81.7389 22.678C82.3109 22.106 82.5969 21.38 82.5969 20.5C82.5969 19.62 82.3109 18.894 81.7389 18.322C81.1669 17.75 80.4555 17.464 79.6049 17.464C78.7542 17.464 78.0429 17.75 77.4709 18.322C76.9135 18.894 76.6349 19.62 76.6349 20.5C76.6349 21.38 76.9135 22.106 77.4709 22.678ZM95.1314 15H97.9694V26H95.1314V24.768C94.442 25.7947 93.3494 26.308 91.8534 26.308C90.6507 26.308 89.6534 25.9047 88.8614 25.098C88.084 24.2913 87.6954 23.1767 87.6954 21.754V15H90.5334V21.402C90.5334 22.1353 90.7314 22.7 91.1274 23.096C91.5234 23.4773 92.0514 23.668 92.7114 23.668C93.4447 23.668 94.0314 23.4407 94.4714 22.986C94.9114 22.5313 95.1314 21.8493 95.1314 20.94V15ZM103.541 18.124C103.541 18.4173 103.731 18.6593 104.113 18.85C104.509 19.026 104.985 19.1873 105.543 19.334C106.1 19.466 106.657 19.642 107.215 19.862C107.772 20.0673 108.241 20.4193 108.623 20.918C109.019 21.4167 109.217 22.04 109.217 22.788C109.217 23.9173 108.791 24.79 107.941 25.406C107.105 26.0073 106.056 26.308 104.795 26.308C102.536 26.308 100.996 25.4353 100.175 23.69L102.639 22.304C102.961 23.2573 103.68 23.734 104.795 23.734C105.807 23.734 106.313 23.4187 106.313 22.788C106.313 22.4947 106.115 22.26 105.719 22.084C105.337 21.8933 104.868 21.7247 104.311 21.578C103.753 21.4313 103.196 21.248 102.639 21.028C102.081 20.808 101.605 20.4633 101.209 19.994C100.827 19.51 100.637 18.9087 100.637 18.19C100.637 17.1047 101.033 16.254 101.825 15.638C102.631 15.0073 103.629 14.692 104.817 14.692C105.711 14.692 106.525 14.8973 107.259 15.308C107.992 15.704 108.571 16.276 108.997 17.024L106.577 18.344C106.225 17.596 105.638 17.222 104.817 17.222C104.45 17.222 104.142 17.3027 103.893 17.464C103.658 17.6253 103.541 17.8453 103.541 18.124ZM112.89 13.68C112.42 13.68 112.01 13.5113 111.658 13.174C111.32 12.822 111.152 12.4113 111.152 11.942C111.152 11.4727 111.32 11.062 111.658 10.71C112.01 10.358 112.42 10.182 112.89 10.182C113.374 10.182 113.784 10.358 114.122 10.71C114.474 11.062 114.65 11.4727 114.65 11.942C114.65 12.4113 114.474 12.822 114.122 13.174C113.784 13.5113 113.374 13.68 112.89 13.68ZM111.482 26V15H114.32V26H111.482ZM123.759 14.692C125.241 14.692 126.502 15.2567 127.543 16.386C128.599 17.5007 129.127 18.872 129.127 20.5C129.127 22.128 128.599 23.5067 127.543 24.636C126.502 25.7507 125.241 26.308 123.759 26.308C122.219 26.308 121.031 25.7727 120.195 24.702V26H117.357V10.6H120.195V16.298C121.031 15.2273 122.219 14.692 123.759 14.692ZM121.053 22.744C121.625 23.316 122.351 23.602 123.231 23.602C124.111 23.602 124.837 23.316 125.409 22.744C125.996 22.1573 126.289 21.4093 126.289 20.5C126.289 19.5907 125.996 18.85 125.409 18.278C124.837 17.6913 124.111 17.398 123.231 17.398C122.351 17.398 121.625 17.6913 121.053 18.278C120.481 18.85 120.195 19.5907 120.195 20.5C120.195 21.4093 120.481 22.1573 121.053 22.744ZM131.569 26V9.94H134.407V26H131.569ZM144.616 15H147.652L143.648 26C143.076 27.584 142.314 28.728 141.36 29.432C140.422 30.1507 139.248 30.4733 137.84 30.4V27.76C138.603 27.7747 139.204 27.6133 139.644 27.276C140.099 26.9387 140.458 26.396 140.722 25.648L136.212 15H139.314L142.174 22.392L144.616 15Z" fill="black"/>
</svg>
