<svg width="5" height="22" viewBox="0 0 5 22" fill="none" xmlns="http://www.w3.org/2000/svg">
<path d="M2.29424 8.35626C3.56882 8.35626 4.58848 9.40079 4.58848 10.7065C4.58848 12.0121 3.56882 13.0567 2.29424 13.0567C1.01966 13.0567 0 12.0121 0 10.7065C0 9.40079 1.01966 8.35626 2.29424 8.35626ZM0 2.3502C0 3.65586 1.01966 4.7004 2.29424 4.7004C3.56882 4.7004 4.58848 3.65586 4.58848 2.3502C4.58848 1.04453 3.56882 0 2.29424 0C1.01966 0 0 1.04453 0 2.3502ZM0 19.0627C0 20.3684 1.01966 21.4129 2.29424 21.4129C3.56882 21.4129 4.58848 20.3684 4.58848 19.0627C4.58848 17.757 3.56882 16.7125 2.29424 16.7125C1.01966 16.7125 0 17.757 0 19.0627Z" fill="#DCDCDC"/>
</svg>
