<svg width="20" height="20" viewBox="0 0 20 20" fill="none" xmlns="http://www.w3.org/2000/svg">
<path fill-rule="evenodd" clip-rule="evenodd" d="M9.61154 0C4.30323 0 0 4.20819 0 9.39926C0 14.5903 4.30323 18.7985 9.61154 18.7985C11.8817 18.7985 13.9681 18.0288 15.6127 16.7418L18.7366 19.7887L18.8197 19.8587C19.1097 20.0686 19.5209 20.0447 19.7834 19.7874C20.0721 19.5043 20.0715 19.046 19.782 18.7637L16.6949 15.7526C18.2648 14.0796 19.2231 11.8489 19.2231 9.39926C19.2231 4.20819 14.9198 0 9.61154 0ZM9.61154 1.44774C14.1022 1.44774 17.7426 5.00776 17.7426 9.39926C17.7426 13.7908 14.1022 17.3508 9.61154 17.3508C5.12086 17.3508 1.48044 13.7908 1.48044 9.39926C1.48044 5.00776 5.12086 1.44774 9.61154 1.44774Z" fill="#09110E"/>
</svg>
