<svg width="32" height="31" viewBox="0 0 32 31" fill="none" xmlns="http://www.w3.org/2000/svg">
<path d="M0.284268 25.372L3.08515 26.5984C5.88533 27.8245 9.07206 27.7695 11.8283 26.4474C14.4503 25.1897 17.4579 25.1897 20.0799 26.4474C21.5138 27.1352 23.0638 27.4801 24.6158 27.48C26.0468 27.48 27.4796 27.1866 28.823 26.5984L31.6239 25.372C31.8639 25.2669 31.9732 24.9871 31.8682 24.7471C31.7631 24.5072 31.4833 24.3977 31.2433 24.5028L28.4424 25.7292C27.2772 26.2395 26.0384 26.505 24.7972 26.5286V19.4469C26.663 17.3093 27.6888 14.5783 27.6888 11.7347C27.6888 9.36107 26.9831 7.07408 25.6481 5.12089C25.5003 4.90462 25.2051 4.84908 24.9887 4.99697C24.7724 5.1448 24.7169 5.44001 24.8648 5.65634C26.0916 7.45115 26.74 9.55299 26.74 11.7347C26.74 13.9586 26.0572 16.1076 24.7973 17.9094V17.5058C24.7973 16.8558 24.6523 16.2393 24.3942 15.6857C24.9766 14.4457 25.272 13.1177 25.272 11.7347C25.272 6.59676 21.0921 2.41679 15.9542 2.41679C13.1855 2.41679 10.5783 3.63679 8.80095 5.764C8.63294 5.96509 8.65976 6.26429 8.86079 6.43223C9.06194 6.6003 9.36107 6.57342 9.52902 6.37239C11.1256 4.46158 13.4675 3.36562 15.9542 3.36562C20.5689 3.36562 24.3232 7.11994 24.3232 11.7347C24.3232 12.7695 24.1386 13.7696 23.7751 14.7182C22.9813 13.7794 21.796 13.1818 20.4733 13.1818H11.4982C10.1511 13.1818 8.94618 13.8012 8.15252 14.77C7.77609 13.8068 7.58499 12.7894 7.58499 11.7347C7.58499 10.4124 7.88476 9.14708 8.47594 7.97389C8.59385 7.73991 8.49973 7.45469 8.26575 7.33672C8.03177 7.21887 7.74655 7.31293 7.62858 7.54691C6.97003 8.8537 6.6361 10.2627 6.6361 11.7347C6.6361 13.1449 6.94245 14.4959 7.54615 15.7544C7.30775 16.2902 7.17415 16.8826 7.17415 17.5058V17.9996C5.87337 16.1799 5.1682 13.9985 5.1682 11.7347C5.1682 5.78734 10.0067 0.948828 15.954 0.948828C18.8523 0.948828 21.5727 2.0828 23.6139 4.14182C23.7983 4.32786 24.0987 4.32912 24.2847 4.14473C24.4708 3.96028 24.4721 3.65988 24.2877 3.47385C22.067 1.23367 19.1074 0 15.954 0C9.48354 0 4.21937 5.26416 4.21937 11.7347C4.21937 14.6137 5.26764 17.3701 7.17415 19.5188V21.9299C7.17415 22.1919 7.38656 22.4043 7.64857 22.4043C7.91057 22.4043 8.12298 22.1919 8.12298 21.9299V17.5058C8.12298 15.6447 9.63706 14.1306 11.4982 14.1306H20.4731C22.3342 14.1306 23.8483 15.6447 23.8483 17.5058V26.4993C22.8149 26.4158 21.7927 26.1633 20.8227 25.7427V23.2192C20.8227 22.9572 20.6103 22.7448 20.3483 22.7448C20.0862 22.7448 19.8738 22.9572 19.8738 23.2192V25.3206C19.1927 25.0453 18.4922 24.8444 17.7825 24.7177V16.1615C17.7825 15.8994 17.5701 15.687 17.3081 15.687C17.0461 15.687 16.8337 15.8994 16.8337 16.1615V24.5922C16.2693 24.5443 15.7022 24.543 15.1377 24.5875V16.1615C15.1377 15.8994 14.9253 15.687 14.6633 15.687C14.4012 15.687 14.1888 15.8994 14.1888 16.1615V24.7062C13.4795 24.8283 12.779 25.0252 12.0975 25.2956V23.2192C12.0975 22.9572 11.8851 22.7448 11.6231 22.7448C11.3611 22.7448 11.1487 22.9572 11.1487 23.2192V25.7155C10.1797 26.1439 9.15733 26.4034 8.12304 26.4939V23.9539C8.12304 23.6919 7.91063 23.4794 7.64863 23.4794C7.38663 23.4794 7.17421 23.6919 7.17421 23.9539V26.5299C5.91183 26.5142 4.65071 26.248 3.46575 25.7291L0.664811 24.5028C0.424884 24.3977 0.145043 24.5071 0.0399765 24.7471C-0.0651537 24.9871 0.0442146 25.2668 0.284268 25.372Z" fill="black"/>
<path d="M31.2432 28.0224L28.4423 29.2488C25.8954 30.364 22.997 30.3139 20.4901 29.1115C17.6073 27.7286 14.3006 27.7286 11.4178 29.1115C8.91101 30.3139 6.01253 30.364 3.46563 29.2488L0.664811 28.0224C0.424884 27.9173 0.145043 28.0267 0.0399765 28.2667C-0.0651537 28.5067 0.0442146 28.7865 0.284268 28.8915L3.08515 30.1179C5.88533 31.3441 9.07206 31.289 11.8283 29.9669C14.4503 28.7092 17.4579 28.7092 20.0799 29.9669C21.5138 30.6548 23.0638 30.9996 24.6158 30.9996C26.0468 30.9995 27.4796 30.7061 28.823 30.1179L31.6239 28.8915C31.8639 28.7865 31.9732 28.5067 31.8682 28.2667C31.763 28.0266 31.4832 27.9173 31.2432 28.0224Z" fill="black"/>
<path d="M11.6219 20.9041C11.8839 20.9041 12.0963 20.6917 12.0963 20.4297V19.0994C12.0963 18.8374 11.8839 18.625 11.6219 18.625C11.3599 18.625 11.1475 18.8374 11.1475 19.0994V20.4297C11.1475 20.6917 11.3599 20.9041 11.6219 20.9041Z" fill="black"/>
<path d="M20.3484 20.9041C20.6104 20.9041 20.8229 20.6917 20.8229 20.4297V19.0994C20.8229 18.8374 20.6104 18.625 20.3484 18.625C20.0864 18.625 19.874 18.8374 19.874 19.0994V20.4297C19.874 20.6917 20.0864 20.9041 20.3484 20.9041Z" fill="black"/>
</svg>
